<svg width="80" height="80" viewBox="0 0 80 80" fill="none" xmlns="http://www.w3.org/2000/svg">
<rect width="80" height="80" fill="#262626"/>
<path d="M58.065 32.0246C58.8381 32.0246 59.4648 31.3979 59.4648 30.6248C59.4648 29.8518 58.8381 29.2251 58.065 29.2251C57.292 29.2251 56.6653 29.8518 56.6653 30.6248C56.6653 31.3979 57.292 32.0246 58.065 32.0246Z" fill="#00A7E1"/>
<path d="M52.742 35.0978C53.5151 35.0978 54.1418 34.4711 54.1418 33.6981C54.1418 32.925 53.5151 32.2983 52.742 32.2983C51.969 32.2983 51.3423 32.925 51.3423 33.6981C51.3423 34.4711 51.969 35.0978 52.742 35.0978Z" fill="#00A7E1"/>
<path d="M56.11 31.5625L47.209 36.7017L47.3725 36.9849L56.2735 31.8457L56.11 31.5625Z" fill="#00A7E1"/>
<path d="M58.15 50.6257C58.923 50.6257 59.5497 49.999 59.5497 49.2259C59.5497 48.4529 58.923 47.8262 58.15 47.8262C57.3769 47.8262 56.7502 48.4529 56.7502 49.2259C56.7502 49.999 57.3769 50.6257 58.15 50.6257Z" fill="#00A7E1"/>
<path d="M52.827 47.5514C53.6001 47.5514 54.2267 46.9248 54.2267 46.1517C54.2267 45.3786 53.6001 44.752 52.827 44.752C52.0539 44.752 51.4272 45.3786 51.4272 46.1517C51.4272 46.9248 52.0539 47.5514 52.827 47.5514Z" fill="#00A7E1"/>
<path d="M47.4587 42.8662L47.2952 43.1494L56.1962 48.2886L56.3597 48.0054L47.4587 42.8662Z" fill="#00A7E1"/>
<path d="M40.686 58.6004C40.686 57.8273 41.3127 57.2007 42.0858 57.2007C42.8589 57.2007 43.4855 57.8273 43.4855 58.6004C43.4855 59.3736 42.8589 60.0002 42.0858 60.0002C41.3127 59.9989 40.686 59.3736 40.686 58.6004Z" fill="#00A7E1"/>
<path d="M42.0858 53.8527C42.8588 53.8527 43.4855 53.226 43.4855 52.453C43.4855 51.6799 42.8588 51.0532 42.0858 51.0532C41.3127 51.0532 40.686 51.6799 40.686 52.453C40.686 53.226 41.3127 53.8527 42.0858 53.8527Z" fill="#00A7E1"/>
<path d="M42.2494 46.1606H41.9224V56.439H42.2494V46.1606Z" fill="#00A7E1"/>
<path d="M25.9337 50.7736C26.7067 50.7736 27.3334 50.1469 27.3334 49.3739C27.3334 48.6008 26.7067 47.9741 25.9337 47.9741C25.1606 47.9741 24.5339 48.6008 24.5339 49.3739C24.5339 50.1469 25.1606 50.7736 25.9337 50.7736Z" fill="#00A7E1"/>
<path d="M31.2567 47.7004C32.0297 47.7004 32.6564 47.0737 32.6564 46.3006C32.6564 45.5276 32.0297 44.9009 31.2567 44.9009C30.4836 44.9009 29.8569 45.5276 29.8569 46.3006C29.8569 47.0737 30.4836 47.7004 31.2567 47.7004Z" fill="#00A7E1"/>
<path d="M36.6232 43.0127L27.7222 48.1519L27.8857 48.4351L36.7867 43.2959L36.6232 43.0127Z" fill="#00A7E1"/>
<path d="M25.8487 32.174C26.6218 32.174 27.2485 31.5473 27.2485 30.7743C27.2485 30.0012 26.6218 29.3745 25.8487 29.3745C25.0757 29.3745 24.449 30.0012 24.449 30.7743C24.449 31.5473 25.0757 32.174 25.8487 32.174Z" fill="#00A7E1"/>
<path d="M31.1717 35.2468C31.9448 35.2468 32.5715 34.6201 32.5715 33.847C32.5715 33.074 31.9448 32.4473 31.1717 32.4473C30.3987 32.4473 29.772 33.074 29.772 33.847C29.772 34.6201 30.3987 35.2468 31.1717 35.2468Z" fill="#00A7E1"/>
<path d="M27.7995 31.7139L27.636 31.9971L36.537 37.1362L36.7005 36.853L27.7995 31.7139Z" fill="#00A7E1"/>
<path d="M41.9132 22.7995C42.6862 22.7995 43.3129 22.1728 43.3129 21.3997C43.3129 20.6267 42.6862 20 41.9132 20C41.1401 20 40.5134 20.6267 40.5134 21.3997C40.5134 22.1728 41.1401 22.7995 41.9132 22.7995Z" fill="#00A7E1"/>
<path d="M41.9132 28.9455C42.6862 28.9455 43.3129 28.3188 43.3129 27.5457C43.3129 26.7727 42.6862 26.146 41.9132 26.146C41.1401 26.146 40.5134 26.7727 40.5134 27.5457C40.5134 28.3188 41.1401 28.9455 41.9132 28.9455Z" fill="#00A7E1"/>
<path d="M42.078 23.5596H41.751V33.8379H42.078V23.5596Z" fill="#00A7E1"/>
<path d="M51.2247 25.2482C51.9978 25.2482 52.6244 24.6215 52.6244 23.8485C52.6244 23.0754 51.9978 22.4487 51.2247 22.4487C50.4516 22.4487 49.825 23.0754 49.825 23.8485C49.825 24.6215 50.4516 25.2482 51.2247 25.2482Z" fill="white"/>
<path d="M48.1517 30.5715C48.9248 30.5715 49.5514 29.9448 49.5514 29.1717C49.5514 28.3987 48.9248 27.772 48.1517 27.772C47.3786 27.772 46.752 28.3987 46.752 29.1717C46.752 29.9448 47.3786 30.5715 48.1517 30.5715Z" fill="white"/>
<path d="M50.0022 25.6395L44.863 34.5405L45.1463 34.704L50.2854 25.803L50.0022 25.6395Z" fill="white"/>
<path d="M60.599 41.3141C61.372 41.3141 61.9987 40.6875 61.9987 39.9144C61.9987 39.1413 61.372 38.5146 60.599 38.5146C59.8259 38.5146 59.1992 39.1413 59.1992 39.9144C59.1992 40.6875 59.8259 41.3141 60.599 41.3141Z" fill="white"/>
<path d="M54.4532 41.3141C55.2263 41.3141 55.853 40.6875 55.853 39.9144C55.853 39.1413 55.2263 38.5146 54.4532 38.5146C53.6802 38.5146 53.0535 39.1413 53.0535 39.9144C53.0535 40.6875 53.6802 41.3141 54.4532 41.3141Z" fill="white"/>
<path d="M58.4392 39.751H48.1609V40.078H58.4392V39.751Z" fill="white"/>
<path d="M51.3736 57.465C52.1467 57.465 52.7734 56.8383 52.7734 56.0653C52.7734 55.2922 52.1467 54.6655 51.3736 54.6655C50.6006 54.6655 49.9739 55.2922 49.9739 56.0653C49.9739 56.8383 50.6006 57.465 51.3736 57.465Z" fill="white"/>
<path d="M48.3006 52.1418C49.0737 52.1418 49.7004 51.5151 49.7004 50.742C49.7004 49.969 49.0737 49.3423 48.3006 49.3423C47.5276 49.3423 46.9009 49.969 46.9009 50.742C46.9009 51.5151 47.5276 52.1418 48.3006 52.1418Z" fill="white"/>
<path d="M45.294 45.2095L45.0107 45.373L50.1499 54.2741L50.4331 54.1105L45.294 45.2095Z" fill="white"/>
<path d="M32.774 57.551C33.5471 57.551 34.1738 56.9243 34.1738 56.1512C34.1738 55.3782 33.5471 54.7515 32.774 54.7515C32.001 54.7515 31.3743 55.3782 31.3743 56.1512C31.3743 56.9243 32.001 57.551 32.774 57.551Z" fill="white"/>
<path d="M35.8468 52.2282C36.6198 52.2282 37.2465 51.6015 37.2465 50.8285C37.2465 50.0554 36.6198 49.4287 35.8468 49.4287C35.0737 49.4287 34.447 50.0554 34.447 50.8285C34.447 51.6015 35.0737 52.2282 35.8468 52.2282Z" fill="white"/>
<path d="M38.8506 45.2992L33.7114 54.2002L33.9946 54.3637L39.1338 45.4627L38.8506 45.2992Z" fill="white"/>
<path d="M23.3997 41.4855C24.1728 41.4855 24.7995 40.8588 24.7995 40.0858C24.7995 39.3127 24.1728 38.686 23.3997 38.686C22.6267 38.686 22 39.3127 22 40.0858C22 40.8588 22.6267 41.4855 23.3997 41.4855Z" fill="white"/>
<path d="M29.5455 41.4855C30.3186 41.4855 30.9452 40.8588 30.9452 40.0858C30.9452 39.3127 30.3186 38.686 29.5455 38.686C28.7724 38.686 28.1458 39.3127 28.1458 40.0858C28.1458 40.8588 28.7724 41.4855 29.5455 41.4855Z" fill="white"/>
<path d="M35.8379 39.9224H25.5596V40.2494H35.8379V39.9224Z" fill="white"/>
<path d="M32.6251 25.3346C33.3981 25.3346 34.0248 24.708 34.0248 23.9349C34.0248 23.1618 33.3981 22.5352 32.6251 22.5352C31.852 22.5352 31.2253 23.1618 31.2253 23.9349C31.2253 24.708 31.852 25.3346 32.6251 25.3346Z" fill="white"/>
<path d="M35.6981 30.6579C36.4711 30.6579 37.0978 30.0312 37.0978 29.2581C37.0978 28.4851 36.4711 27.8584 35.6981 27.8584C34.925 27.8584 34.2983 28.4851 34.2983 29.2581C34.2983 30.0312 34.925 30.6579 35.6981 30.6579Z" fill="white"/>
<path d="M33.8452 25.7222L33.562 25.8857L38.7012 34.7868L38.9844 34.6232L33.8452 25.7222Z" fill="white"/>
<path d="M41.9993 42.9362C43.6213 42.9362 44.9362 41.6213 44.9362 39.9993C44.9362 38.3774 43.6213 37.0625 41.9993 37.0625C40.3774 37.0625 39.0625 38.3774 39.0625 39.9993C39.0625 41.6213 40.3774 42.9362 41.9993 42.9362Z" fill="white"/>
</svg>
