<svg width="40" height="40" viewBox="0 0 40 40" fill="none" xmlns="http://www.w3.org/2000/svg">
<path d="M36.0658 12.0251C36.8388 12.0251 37.4655 11.3984 37.4655 10.6253C37.4655 9.85227 36.8388 9.22559 36.0658 9.22559C35.2927 9.22559 34.666 9.85227 34.666 10.6253C34.666 11.3984 35.2927 12.0251 36.0658 12.0251Z" fill="#00A7E1"/>
<path d="M30.7415 15.0978C31.5146 15.0978 32.1413 14.4711 32.1413 13.6981C32.1413 12.925 31.5146 12.2983 30.7415 12.2983C29.9685 12.2983 29.3418 12.925 29.3418 13.6981C29.3418 14.4711 29.9685 15.0978 30.7415 15.0978Z" fill="#00A7E1"/>
<path d="M34.11 11.5627L25.209 16.7019L25.3725 16.9851L34.2735 11.846L34.11 11.5627Z" fill="#00A7E1"/>
<path d="M36.1497 30.6259C36.9228 30.6259 37.5495 29.9992 37.5495 29.2262C37.5495 28.4531 36.9228 27.8264 36.1497 27.8264C35.3767 27.8264 34.75 28.4531 34.75 29.2262C34.75 29.9992 35.3767 30.6259 36.1497 30.6259Z" fill="#00A7E1"/>
<path d="M30.8275 27.5517C31.6005 27.5517 32.2272 26.925 32.2272 26.1519C32.2272 25.3789 31.6005 24.7522 30.8275 24.7522C30.0544 24.7522 29.4277 25.3789 29.4277 26.1519C29.4277 26.925 30.0544 27.5517 30.8275 27.5517Z" fill="#00A7E1"/>
<path d="M25.4584 22.8667L25.2949 23.1499L34.1959 28.2891L34.3595 28.0058L25.4584 22.8667Z" fill="#00A7E1"/>
<path d="M18.6855 38.6004C18.6855 37.8273 19.3122 37.2007 20.0853 37.2007C20.8584 37.2007 21.485 37.8273 21.485 38.6004C21.485 39.3736 20.8584 40.0002 20.0853 40.0002C19.3122 39.9989 18.6855 39.3736 18.6855 38.6004Z" fill="#00A7E1"/>
<path d="M20.0853 33.8532C20.8584 33.8532 21.485 33.2265 21.485 32.4535C21.485 31.6804 20.8584 31.0537 20.0853 31.0537C19.3122 31.0537 18.6855 31.6804 18.6855 32.4535C18.6855 33.2265 19.3122 33.8532 20.0853 33.8532Z" fill="#00A7E1"/>
<path d="M20.2489 26.1611H19.9219V36.4394H20.2489V26.1611Z" fill="#00A7E1"/>
<path d="M3.9349 30.7734C4.70796 30.7734 5.33465 30.1467 5.33465 29.3736C5.33465 28.6006 4.70796 27.9739 3.9349 27.9739C3.16184 27.9739 2.53516 28.6006 2.53516 29.3736C2.53516 30.1467 3.16184 30.7734 3.9349 30.7734Z" fill="#00A7E1"/>
<path d="M9.25717 27.7006C10.0302 27.7006 10.6569 27.0739 10.6569 26.3009C10.6569 25.5278 10.0302 24.9011 9.25717 24.9011C8.48411 24.9011 7.85742 25.5278 7.85742 26.3009C7.85742 27.0739 8.48411 27.7006 9.25717 27.7006Z" fill="#00A7E1"/>
<path d="M14.6237 23.0127L5.72266 28.1519L5.88618 28.4351L14.7872 23.2959L14.6237 23.0127Z" fill="#00A7E1"/>
<path d="M3.84897 12.1738C4.62202 12.1738 5.24871 11.5471 5.24871 10.774C5.24871 10.001 4.62202 9.37427 3.84897 9.37427C3.07591 9.37427 2.44922 10.001 2.44922 10.774C2.44922 11.5471 3.07591 12.1738 3.84897 12.1738Z" fill="#00A7E1"/>
<path d="M9.17123 15.2465C9.94429 15.2465 10.571 14.6198 10.571 13.8468C10.571 13.0737 9.94429 12.447 9.17123 12.447C8.39817 12.447 7.77148 13.0737 7.77148 13.8468C7.77148 14.6198 8.39817 15.2465 9.17123 15.2465Z" fill="#00A7E1"/>
<path d="M5.80024 11.7131L5.63672 11.9963L14.5377 17.1355L14.7013 16.8523L5.80024 11.7131Z" fill="#00A7E1"/>
<path d="M19.9134 2.79949C20.6865 2.79949 21.3132 2.1728 21.3132 1.39974C21.3132 0.626687 20.6865 0 19.9134 0C19.1404 0 18.5137 0.626687 18.5137 1.39974C18.5137 2.1728 19.1404 2.79949 19.9134 2.79949Z" fill="#00A7E1"/>
<path d="M19.9134 8.94524C20.6865 8.94524 21.3132 8.31855 21.3132 7.54549C21.3132 6.77244 20.6865 6.14575 19.9134 6.14575C19.1404 6.14575 18.5137 6.77244 18.5137 7.54549C18.5137 8.31855 19.1404 8.94524 19.9134 8.94524Z" fill="#00A7E1"/>
<path d="M20.079 3.55957H19.752V13.8379H20.079V3.55957Z" fill="#00A7E1"/>
<path d="M29.224 5.24895C29.997 5.24895 30.6237 4.62227 30.6237 3.84921C30.6237 3.07615 29.997 2.44946 29.224 2.44946C28.4509 2.44946 27.8242 3.07615 27.8242 3.84921C27.8242 4.62227 28.4509 5.24895 29.224 5.24895Z" fill="white"/>
<path d="M26.1517 10.5719C26.9248 10.5719 27.5514 9.94527 27.5514 9.17221C27.5514 8.39915 26.9248 7.77246 26.1517 7.77246C25.3786 7.77246 24.752 8.39915 24.752 9.17221C24.752 9.94527 25.3786 10.5719 26.1517 10.5719Z" fill="white"/>
<path d="M28.0024 5.64L22.8633 14.541L23.1465 14.7045L28.2857 5.80352L28.0024 5.64Z" fill="white"/>
<path d="M38.599 21.3144C39.372 21.3144 39.9987 20.6877 39.9987 19.9146C39.9987 19.1416 39.372 18.5149 38.599 18.5149C37.8259 18.5149 37.1992 19.1416 37.1992 19.9146C37.1992 20.6877 37.8259 21.3144 38.599 21.3144Z" fill="white"/>
<path d="M32.4525 21.3144C33.2255 21.3144 33.8522 20.6877 33.8522 19.9146C33.8522 19.1416 33.2255 18.5149 32.4525 18.5149C31.6794 18.5149 31.0527 19.1416 31.0527 19.9146C31.0527 20.6877 31.6794 21.3144 32.4525 21.3144Z" fill="white"/>
<path d="M36.4385 19.7512H26.1602V20.0783H36.4385V19.7512Z" fill="white"/>
<path d="M29.3743 37.4648C30.1474 37.4648 30.7741 36.8381 30.7741 36.065C30.7741 35.292 30.1474 34.6653 29.3743 34.6653C28.6013 34.6653 27.9746 35.292 27.9746 36.065C27.9746 36.8381 28.6013 37.4648 29.3743 37.4648Z" fill="white"/>
<path d="M26.3021 32.1418C27.0751 32.1418 27.7018 31.5151 27.7018 30.742C27.7018 29.969 27.0751 29.3423 26.3021 29.3423C25.529 29.3423 24.9023 29.969 24.9023 30.742C24.9023 31.5151 25.529 32.1418 26.3021 32.1418Z" fill="white"/>
<path d="M23.2949 25.2098L23.0117 25.3733L28.1509 34.2743L28.4341 34.1108L23.2949 25.2098Z" fill="white"/>
<path d="M10.7747 37.5514C11.5478 37.5514 12.1745 36.9248 12.1745 36.1517C12.1745 35.3786 11.5478 34.752 10.7747 34.752C10.0017 34.752 9.375 35.3786 9.375 36.1517C9.375 36.9248 10.0017 37.5514 10.7747 37.5514Z" fill="white"/>
<path d="M13.847 32.2284C14.6201 32.2284 15.2468 31.6018 15.2468 30.8287C15.2468 30.0556 14.6201 29.429 13.847 29.429C13.074 29.429 12.4473 30.0556 12.4473 30.8287C12.4473 31.6018 13.074 32.2284 13.847 32.2284Z" fill="white"/>
<path d="M16.852 25.2994L11.7129 34.2004L11.9961 34.364L17.1353 25.4629L16.852 25.2994Z" fill="white"/>
<path d="M1.39975 21.4858C2.1728 21.4858 2.79949 20.8591 2.79949 20.086C2.79949 19.313 2.1728 18.6863 1.39975 18.6863C0.626689 18.6863 0 19.313 0 20.086C0 20.8591 0.626689 21.4858 1.39975 21.4858Z" fill="white"/>
<path d="M7.54623 21.4858C8.31928 21.4858 8.94597 20.8591 8.94597 20.086C8.94597 19.313 8.31928 18.6863 7.54623 18.6863C6.77317 18.6863 6.14648 19.313 6.14648 20.086C6.14648 20.8591 6.77317 21.4858 7.54623 21.4858Z" fill="white"/>
<path d="M13.8369 19.9224H3.55859V20.2494H13.8369V19.9224Z" fill="white"/>
<path d="M10.6244 5.33513C11.3974 5.33513 12.0241 4.70845 12.0241 3.93539C12.0241 3.16233 11.3974 2.53564 10.6244 2.53564C9.85129 2.53564 9.22461 3.16233 9.22461 3.93539C9.22461 4.70845 9.85129 5.33513 10.6244 5.33513Z" fill="white"/>
<path d="M13.6966 10.6581C14.4697 10.6581 15.0964 10.0314 15.0964 9.25839C15.0964 8.48533 14.4697 7.85864 13.6966 7.85864C12.9236 7.85864 12.2969 8.48533 12.2969 9.25839C12.2969 10.0314 12.9236 10.6581 13.6966 10.6581Z" fill="white"/>
<path d="M11.8438 5.72271L11.5605 5.88623L16.6997 14.7872L16.9829 14.6237L11.8438 5.72271Z" fill="white"/>
<path d="M19.9993 22.9364C21.6213 22.9364 22.9362 21.6216 22.9362 19.9996C22.9362 18.3776 21.6213 17.0627 19.9993 17.0627C18.3774 17.0627 17.0625 18.3776 17.0625 19.9996C17.0625 21.6216 18.3774 22.9364 19.9993 22.9364Z" fill="white"/>
</svg>
