<?xml version="1.0" encoding="utf-8"?>
<!-- Generator: Adobe Illustrator 27.0.0, SVG Export Plug-In . SVG Version: 6.00 Build 0)  -->
<svg version="1.1" xmlns="http://www.w3.org/2000/svg" xmlns:xlink="http://www.w3.org/1999/xlink" x="0px" y="0px"
	 viewBox="0 0 1000 800" style="enable-background:new 0 0 1000 800;" xml:space="preserve">
<style type="text/css">
	.st0{fill:#FFFFFF;}
	.st1{fill:#666666;}
	.st2{fill:#00A7E1;}
</style>
<g id="Layer_1">
	<rect x="-3.05" y="-2.85" class="st0" width="1006.09" height="805.7"/>
	<g id="Regal_Vector_Pack_04">
	</g>
	<g id="Regal_Vector_Pack_02">
	</g>
	<g id="Layer_3_2_">
	</g>
	<g id="Layer_1_1_">
		<g id="Regal_Vector_Pack_04_1_">
		</g>
		<g id="Regal_Vector_Pack_02_1_">
		</g>
	</g>
	<g>
		<g>
			<path class="st1" d="M186.78,564.92l-15.61,20.82h-1.78l-15.27-20.89v34.86h-9.04v-47.94h10.41l15,20.61l15-20.61h10.34v47.94
				h-9.04V564.92z"/>
			<path class="st1" d="M246.9,599.64h-35.88c0-15.96,0-31.98,0-47.94h35.88v8.77h-26.91v11.02h25.95v8.42h-25.95v10.82h26.91
				V599.64z"/>
			<path class="st1" d="M275.93,559.92h-15.2v-8.22c13.83,0,25.54,0,39.44,0v8.22h-15.2v39.72h-9.04V559.92z"/>
			<path class="st1" d="M346.52,590.6h-25.06l-4.11,9.04h-9.79l21.5-47.94h9.86l21.5,47.94h-9.86L346.52,590.6z M333.99,561.77
				l-8.9,20.41h17.8L333.99,561.77z"/>
			<path class="st1" d="M409.59,565.6c0,3.7-1.78,7.26-6.23,9.24c5.62,1.71,7.67,7.67,7.67,10.68c0,10.68-8.01,14.11-17.94,14.11
				c-7.6,0-15.13,0-22.74,0V551.7c7.53,0,15.13,0,22.74,0C402.53,551.7,409.59,555.95,409.59,565.6z M379.25,570.95h13.83
				c5.68,0,7.53-2.4,7.53-5.14c0-2.19-1.78-5.89-7.53-5.89h-13.83V570.95z M379.25,591.22h13.83c3.7,0,8.97-1.23,8.97-5.75
				c0-4.31-5.27-6.57-8.97-6.57h-13.83V591.22z"/>
			<path class="st1" d="M472.1,575.94c-0.14,12.39-7.74,24.79-24.58,24.79s-24.65-12.12-24.65-24.72c0-12.6,8.08-25.27,24.65-25.27
				C464.02,550.74,472.24,563.41,472.1,575.94z M431.77,576.15c0.21,7.87,4.45,16.3,15.75,16.3c11.3,0,15.55-8.49,15.68-16.37
				c0.14-8.08-4.38-17.12-15.68-17.12C436.22,558.96,431.56,568.07,431.77,576.15z"/>
			<path class="st1" d="M494.62,551.7v39.58h24.65v8.35h-33.69V551.7H494.62z"/>
			<path class="st1" d="M532.56,599.64V551.7h8.97v47.94H532.56z"/>
			<path class="st1" d="M599.12,593.61c-4.93,4.86-11.3,7.12-18.22,7.12c-17.81,0-25.34-12.26-25.41-24.72
				c-0.07-12.53,8.08-25.27,25.41-25.27c6.51,0,12.67,2.46,17.6,7.33l-6.03,5.82c-3.15-3.08-7.4-4.52-11.57-4.52
				c-11.57,0-16.57,8.63-16.5,16.64c0.07,7.94,4.66,16.23,16.5,16.23c4.18,0,8.9-1.71,12.05-4.86L599.12,593.61z"/>
			<g>
				<path class="st1" d="M651.53,550.75h-21.99v49.84h5.81V584.1h16.18c5.11,0,9.42-1.81,12.45-5.24c2.68-3.03,4.15-7.09,4.15-11.44
					C668.13,559.14,662.43,550.75,651.53,550.75z M662.37,567.46c0,5.38-3.39,11.17-10.85,11.17h-16.18v-22.34h16.18
					C658.98,556.29,662.37,562.08,662.37,567.46z"/>
				<path class="st1" d="M704,550c-17.36,0-25.13,12.86-25.13,25.6c0,12.43,7.86,25.81,25.13,25.81c17.17,0,25.06-13.3,25.13-25.66
					v0c0.04-7.48-2.51-14.18-7.17-18.87C717.48,552.38,711.28,550,704,550z M723.45,575.67c0,9.73-6.09,20.2-19.45,20.2
					c-13.23,0-19.32-10.47-19.38-20.2c-0.04-5.98,1.93-11.27,5.53-14.89c3.4-3.43,8.2-5.24,13.85-5.24
					C717.44,555.54,723.45,565.65,723.45,575.67z"/>
				<rect x="742.59" y="550.75" class="st1" width="5.75" height="49.84"/>
				<polygon class="st1" points="797.25,588.28 766.73,550.75 763.58,550.75 763.58,600.59 769.4,600.59 769.4,563.12 
					799.99,600.59 803,600.59 803,550.75 797.25,550.75 				"/>
				<polygon class="st1" points="814.62,550.82 814.62,556.22 831.87,556.22 831.87,600.59 837.68,600.59 837.68,556.22 
					854.92,556.22 854.92,550.82 				"/>
			</g>
		</g>
		<g>
			<g>
				<g>
					<g>
						<circle class="st2" cx="622.81" cy="279.81" r="10.7"/>
						<circle class="st2" cx="582.12" cy="303.3" r="10.7"/>
						<g>
							
								<rect x="535.2" y="306.46" transform="matrix(0.866 -0.5 0.5 0.866 -76.8893 328.4675)" class="st2" width="78.57" height="2.5"/>
						</g>
					</g>
					<g>
						<circle class="st2" cx="623.46" cy="422" r="10.7"/>
						<circle class="st2" cx="582.77" cy="398.5" r="10.7"/>
						<g>
							
								<rect x="573.89" y="354.81" transform="matrix(0.5 -0.866 0.866 0.5 -53.7277 695.135)" class="st2" width="2.5" height="78.57"/>
						</g>
					</g>
					<g>
						<path class="st2" d="M489.96,493.66c0-5.91,4.79-10.7,10.7-10.7c5.91,0,10.7,4.79,10.7,10.7s-4.79,10.7-10.7,10.7
							C494.75,504.35,489.96,499.57,489.96,493.66z"/>
						<circle class="st2" cx="500.66" cy="446.67" r="10.7"/>
						<g>
							<rect x="499.41" y="398.57" class="st2" width="2.5" height="78.57"/>
						</g>
					</g>
					<g>
						<circle class="st2" cx="377.19" cy="423.13" r="10.7"/>
						<circle class="st2" cx="417.88" cy="399.64" r="10.7"/>
						<g>
							
								<rect x="386.23" y="393.99" transform="matrix(0.866 -0.5 0.5 0.866 -140.6089 265.7093)" class="st2" width="78.57" height="2.5"/>
						</g>
					</g>
					<g>
						<circle class="st2" cx="376.54" cy="280.95" r="10.7"/>
						<circle class="st2" cx="417.23" cy="304.44" r="10.7"/>
						<g>
							
								<rect x="423.61" y="269.56" transform="matrix(0.5 -0.866 0.866 0.5 -55.041 522.3631)" class="st2" width="2.5" height="78.57"/>
						</g>
					</g>
					<g>
						<circle class="st2" cx="499.34" cy="209.29" r="10.7"/>
						<circle class="st2" cx="499.34" cy="256.27" r="10.7"/>
						<g>
							<rect x="498.1" y="225.8" class="st2" width="2.5" height="78.57"/>
						</g>
					</g>
				</g>
			</g>
			<g>
				<g>
					<g>
						<circle class="st1" cx="570.52" cy="228.01" r="10.7"/>
						<circle class="st1" cx="547.03" cy="268.7" r="10.7"/>
						<g>
							
								<rect x="503.34" y="275.08" transform="matrix(0.5 -0.866 0.866 0.5 32.0016 608.0925)" class="st1" width="78.57" height="2.5"/>
						</g>
					</g>
					<g>
						<circle class="st1" cx="642.18" cy="350.82" r="10.7"/>
						<circle class="st1" cx="595.2" cy="350.82" r="10.7"/>
						<g>
							<rect x="547.1" y="349.57" class="st1" width="78.57" height="2.5"/>
						</g>
					</g>
					<g>
						<circle class="st1" cx="571.66" cy="474.28" r="10.7"/>
						<circle class="st1" cx="548.17" cy="433.59" r="10.7"/>
						<g>
							
								<rect x="542.51" y="386.67" transform="matrix(0.866 -0.5 0.5 0.866 -140.1282 328.9482)" class="st1" width="2.5" height="78.57"/>
						</g>
					</g>
					<g>
						<circle class="st1" cx="429.48" cy="474.94" r="10.7"/>
						<circle class="st1" cx="452.97" cy="434.25" r="10.7"/>
						<g>
							
								<rect x="418.09" y="425.37" transform="matrix(0.5 -0.866 0.866 0.5 -140.7703 609.4057)" class="st1" width="78.57" height="2.5"/>
						</g>
					</g>
					<g>
						<circle class="st1" cx="357.82" cy="352.13" r="10.7"/>
						<circle class="st1" cx="404.8" cy="352.13" r="10.7"/>
						<g>
							<rect x="374.33" y="350.88" class="st1" width="78.57" height="2.5"/>
						</g>
					</g>
					<g>
						<circle class="st1" cx="428.34" cy="228.67" r="10.7"/>
						<circle class="st1" cx="451.83" cy="269.36" r="10.7"/>
						<g>
							
								<rect x="454.99" y="237.7" transform="matrix(0.866 -0.5 0.5 0.866 -77.37 265.2286)" class="st1" width="2.5" height="78.57"/>
						</g>
					</g>
					<circle class="st1" cx="500" cy="351.47" r="22.45"/>
				</g>
			</g>
		</g>
	</g>
</g>
<g id="Layer_3">
</g>
<g id="Layer_4">
	<g id="Layer_3_1_">
	</g>
	<g id="Regal_Vector_Pack_04_2_">
	</g>
	<g id="Regal_Vector_Pack_02_2_">
	</g>
	<g id="Layer_4_1_">
	</g>
	<g id="Layer_3_3_">
	</g>
</g>
</svg>
