<?xml version="1.0" encoding="UTF-8" standalone="no"?>
<!-- Generator: Adobe Illustrator 27.0.0, SVG Export Plug-In . SVG Version: 6.00 Build 0)  -->

<svg
   version="1.1"
   x="0px"
   y="0px"
   viewBox="0 0 1000 800"
   style="enable-background:new 0 0 1000 800;"
   xml:space="preserve"
   id="svg43"
   sodipodi:docname="Metabolic-Point-logo only.svg"
   inkscape:version="1.4 (86a8ad7, 2024-10-11)"
   xmlns:inkscape="http://www.inkscape.org/namespaces/inkscape"
   xmlns:sodipodi="http://sodipodi.sourceforge.net/DTD/sodipodi-0.dtd"
   xmlns="http://www.w3.org/2000/svg"
   xmlns:svg="http://www.w3.org/2000/svg"><defs
   id="defs43" /><sodipodi:namedview
   id="namedview43"
   pagecolor="#ffffff"
   bordercolor="#000000"
   borderopacity="0.25"
   inkscape:showpageshadow="2"
   inkscape:pageopacity="0.0"
   inkscape:pagecheckerboard="0"
   inkscape:deskcolor="#d1d1d1"
   inkscape:zoom="0.80625"
   inkscape:cx="500.46512"
   inkscape:cy="400"
   inkscape:window-width="1600"
   inkscape:window-height="847"
   inkscape:window-x="-8"
   inkscape:window-y="-8"
   inkscape:window-maximized="1"
   inkscape:current-layer="svg43" />
<style
   type="text/css"
   id="style1">
	.st0{fill:#FFFFFF;}
	.st1{fill:#666666;}
	.st2{fill:#00A7E1;}
</style>
<g
   id="Layer_1">
	<rect
   x="-3.05"
   y="-2.85"
   class="st0"
   width="1006.09"
   height="805.7"
   id="rect1" />
	<g
   id="Regal_Vector_Pack_04">
	</g>
	<g
   id="Regal_Vector_Pack_02">
	</g>
	<g
   id="Layer_3_2_">
	</g>
	<g
   id="Layer_1_1_">
		<g
   id="Regal_Vector_Pack_04_1_">
		</g>
		<g
   id="Regal_Vector_Pack_02_1_">
		</g>
	</g>
	<g
   id="g43">
		
		<g
   id="g42">
			<g
   id="g27">
				<g
   id="g26">
					<g
   id="g15">
						<circle
   class="st2"
   cx="622.81"
   cy="279.81"
   r="10.7"
   id="circle13" />
						<circle
   class="st2"
   cx="582.12"
   cy="303.3"
   r="10.7"
   id="circle14" />
						<g
   id="g14">
							
								<rect
   x="535.2"
   y="306.46"
   transform="matrix(0.866 -0.5 0.5 0.866 -76.8893 328.4675)"
   class="st2"
   width="78.57"
   height="2.5"
   id="rect14" />
						</g>
					</g>
					<g
   id="g17">
						<circle
   class="st2"
   cx="623.46"
   cy="422"
   r="10.7"
   id="circle15" />
						<circle
   class="st2"
   cx="582.77"
   cy="398.5"
   r="10.7"
   id="circle16" />
						<g
   id="g16">
							
								<rect
   x="573.89"
   y="354.81"
   transform="matrix(0.5 -0.866 0.866 0.5 -53.7277 695.135)"
   class="st2"
   width="2.5"
   height="78.57"
   id="rect16" />
						</g>
					</g>
					<g
   id="g19">
						<path
   class="st2"
   d="M489.96,493.66c0-5.91,4.79-10.7,10.7-10.7c5.91,0,10.7,4.79,10.7,10.7s-4.79,10.7-10.7,10.7        C494.75,504.35,489.96,499.57,489.96,493.66z"
   id="path17" />
						<circle
   class="st2"
   cx="500.66"
   cy="446.67"
   r="10.7"
   id="circle17" />
						<g
   id="g18">
							<rect
   x="499.41"
   y="398.57"
   class="st2"
   width="2.5"
   height="78.57"
   id="rect17" />
						</g>
					</g>
					<g
   id="g21">
						<circle
   class="st2"
   cx="377.19"
   cy="423.13"
   r="10.7"
   id="circle19" />
						<circle
   class="st2"
   cx="417.88"
   cy="399.64"
   r="10.7"
   id="circle20" />
						<g
   id="g20">
							
								<rect
   x="386.23"
   y="393.99"
   transform="matrix(0.866 -0.5 0.5 0.866 -140.6089 265.7093)"
   class="st2"
   width="78.57"
   height="2.5"
   id="rect20" />
						</g>
					</g>
					<g
   id="g23">
						<circle
   class="st2"
   cx="376.54"
   cy="280.95"
   r="10.7"
   id="circle21" />
						<circle
   class="st2"
   cx="417.23"
   cy="304.44"
   r="10.7"
   id="circle22" />
						<g
   id="g22">
							
								<rect
   x="423.61"
   y="269.56"
   transform="matrix(0.5 -0.866 0.866 0.5 -55.041 522.3631)"
   class="st2"
   width="2.5"
   height="78.57"
   id="rect22" />
						</g>
					</g>
					<g
   id="g25">
						<circle
   class="st2"
   cx="499.34"
   cy="209.29"
   r="10.7"
   id="circle23" />
						<circle
   class="st2"
   cx="499.34"
   cy="256.27"
   r="10.7"
   id="circle24" />
						<g
   id="g24">
							<rect
   x="498.1"
   y="225.8"
   class="st2"
   width="2.5"
   height="78.57"
   id="rect24" />
						</g>
					</g>
				</g>
			</g>
			<g
   id="g41">
				<g
   id="g40">
					<g
   id="g29">
						<circle
   class="st1"
   cx="570.52"
   cy="228.01"
   r="10.7"
   id="circle27" />
						<circle
   class="st1"
   cx="547.03"
   cy="268.7"
   r="10.7"
   id="circle28" />
						<g
   id="g28">
							
								<rect
   x="503.34"
   y="275.08"
   transform="matrix(0.5 -0.866 0.866 0.5 32.0016 608.0925)"
   class="st1"
   width="78.57"
   height="2.5"
   id="rect28" />
						</g>
					</g>
					<g
   id="g31">
						<circle
   class="st1"
   cx="642.18"
   cy="350.82"
   r="10.7"
   id="circle29" />
						<circle
   class="st1"
   cx="595.2"
   cy="350.82"
   r="10.7"
   id="circle30" />
						<g
   id="g30">
							<rect
   x="547.1"
   y="349.57"
   class="st1"
   width="78.57"
   height="2.5"
   id="rect30" />
						</g>
					</g>
					<g
   id="g33">
						<circle
   class="st1"
   cx="571.66"
   cy="474.28"
   r="10.7"
   id="circle31" />
						<circle
   class="st1"
   cx="548.17"
   cy="433.59"
   r="10.7"
   id="circle32" />
						<g
   id="g32">
							
								<rect
   x="542.51"
   y="386.67"
   transform="matrix(0.866 -0.5 0.5 0.866 -140.1282 328.9482)"
   class="st1"
   width="2.5"
   height="78.57"
   id="rect32" />
						</g>
					</g>
					<g
   id="g35">
						<circle
   class="st1"
   cx="429.48"
   cy="474.94"
   r="10.7"
   id="circle33" />
						<circle
   class="st1"
   cx="452.97"
   cy="434.25"
   r="10.7"
   id="circle34" />
						<g
   id="g34">
							
								<rect
   x="418.09"
   y="425.37"
   transform="matrix(0.5 -0.866 0.866 0.5 -140.7703 609.4057)"
   class="st1"
   width="78.57"
   height="2.5"
   id="rect34" />
						</g>
					</g>
					<g
   id="g37">
						<circle
   class="st1"
   cx="357.82"
   cy="352.13"
   r="10.7"
   id="circle35" />
						<circle
   class="st1"
   cx="404.8"
   cy="352.13"
   r="10.7"
   id="circle36" />
						<g
   id="g36">
							<rect
   x="374.33"
   y="350.88"
   class="st1"
   width="78.57"
   height="2.5"
   id="rect36" />
						</g>
					</g>
					<g
   id="g39">
						<circle
   class="st1"
   cx="428.34"
   cy="228.67"
   r="10.7"
   id="circle37" />
						<circle
   class="st1"
   cx="451.83"
   cy="269.36"
   r="10.7"
   id="circle38" />
						<g
   id="g38">
							
								<rect
   x="454.99"
   y="237.7"
   transform="matrix(0.866 -0.5 0.5 0.866 -77.37 265.2286)"
   class="st1"
   width="2.5"
   height="78.57"
   id="rect38" />
						</g>
					</g>
					<circle
   class="st1"
   cx="500"
   cy="351.47"
   r="22.45"
   id="circle39" />
				</g>
			</g>
		</g>
	</g>
</g>
<g
   id="Layer_3">
</g>
<g
   id="Layer_4">
	<g
   id="Layer_3_1_">
	</g>
	<g
   id="Regal_Vector_Pack_04_2_">
	</g>
	<g
   id="Regal_Vector_Pack_02_2_">
	</g>
	<g
   id="Layer_4_1_">
	</g>
	<g
   id="Layer_3_3_">
	</g>
</g>
</svg>
