<?xml version="1.0" encoding="utf-8"?>
<!-- Generator: Adobe Illustrator 27.0.0, SVG Export Plug-In . SVG Version: 6.00 Build 0)  -->
<svg version="1.1" xmlns="http://www.w3.org/2000/svg" xmlns:xlink="http://www.w3.org/1999/xlink" x="0px" y="0px"
	 viewBox="0 0 1000 800" style="enable-background:new 0 0 1000 800;" xml:space="preserve">
<style type="text/css">
	.st0{fill:#FFFFFF;}
	.st1{fill:#666666;}
	.st2{fill:#00A7E1;}
</style>
<g id="Layer_1">
	<rect x="-3.05" y="-2.85" class="st0" width="1006.09" height="805.7"/>
	<g id="Regal_Vector_Pack_04">
	</g>
	<g id="Regal_Vector_Pack_02">
	</g>
	<g id="Layer_3_2_">
	</g>
	<g id="Layer_1_1_">
		<g id="Regal_Vector_Pack_04_1_">
		</g>
		<g id="Regal_Vector_Pack_02_1_">
		</g>
	</g>
	<g>
		<g>
			<path class="st1" d="M186.78,549.91l-15.61,20.82h-1.78l-15.27-20.89v34.86h-9.04v-47.94h10.41l15,20.61l15-20.61h10.34v47.94
				h-9.04V549.91z"/>
			<path class="st1" d="M246.9,584.63h-35.88c0-15.96,0-31.98,0-47.94h35.88v8.77h-26.91v11.02h25.95v8.42h-25.95v10.82h26.91
				V584.63z"/>
			<path class="st1" d="M275.93,544.91h-15.2v-8.22c13.83,0,25.54,0,39.44,0v8.22h-15.2v39.72h-9.04V544.91z"/>
			<path class="st1" d="M346.52,575.59h-25.06l-4.11,9.04h-9.79l21.5-47.94h9.86l21.5,47.94h-9.86L346.52,575.59z M333.99,546.76
				l-8.9,20.41h17.8L333.99,546.76z"/>
			<path class="st1" d="M409.59,550.59c0,3.7-1.78,7.26-6.23,9.24c5.62,1.71,7.67,7.67,7.67,10.68c0,10.68-8.01,14.11-17.94,14.11
				c-7.6,0-15.13,0-22.74,0v-47.94c7.53,0,15.13,0,22.74,0C402.53,536.69,409.59,540.94,409.59,550.59z M379.25,555.93h13.83
				c5.68,0,7.53-2.4,7.53-5.14c0-2.19-1.78-5.89-7.53-5.89h-13.83V555.93z M379.25,576.2h13.83c3.7,0,8.97-1.23,8.97-5.75
				c0-4.31-5.27-6.57-8.97-6.57h-13.83V576.2z"/>
			<path class="st1" d="M472.1,560.93c-0.14,12.39-7.74,24.79-24.58,24.79S422.86,573.6,422.86,561c0-12.6,8.08-25.27,24.65-25.27
				C464.02,535.73,472.24,548.4,472.1,560.93z M431.77,561.14c0.21,7.87,4.45,16.3,15.75,16.3c11.3,0,15.55-8.49,15.68-16.37
				c0.14-8.08-4.38-17.12-15.68-17.12C436.22,543.95,431.56,553.06,431.77,561.14z"/>
			<path class="st1" d="M494.62,536.69v39.58h24.65v8.35h-33.69v-47.94H494.62z"/>
			<path class="st1" d="M532.56,584.63v-47.94h8.97v47.94H532.56z"/>
			<path class="st1" d="M599.12,578.6c-4.93,4.86-11.3,7.12-18.22,7.12c-17.81,0-25.34-12.26-25.41-24.72
				c-0.07-12.53,8.08-25.27,25.41-25.27c6.51,0,12.67,2.46,17.6,7.33l-6.03,5.82c-3.15-3.08-7.4-4.52-11.57-4.52
				c-11.57,0-16.57,8.63-16.5,16.64c0.07,7.94,4.66,16.23,16.5,16.23c4.18,0,8.9-1.71,12.05-4.86L599.12,578.6z"/>
			<g>
				<path class="st1" d="M651.53,535.74h-21.99v49.84h5.81v-16.49h16.18c5.11,0,9.42-1.81,12.45-5.24
					c2.68-3.03,4.15-7.09,4.15-11.44C668.13,544.13,662.43,535.74,651.53,535.74z M662.37,552.45c0,5.38-3.39,11.17-10.85,11.17
					h-16.18v-22.34h16.18C658.98,541.28,662.37,547.07,662.37,552.45z"/>
				<path class="st1" d="M704,534.99c-17.36,0-25.13,12.86-25.13,25.6c0,12.43,7.86,25.81,25.13,25.81
					c17.17,0,25.06-13.3,25.13-25.66v0c0.04-7.48-2.51-14.18-7.17-18.87C717.48,537.37,711.28,534.99,704,534.99z M723.45,560.66
					c0,9.73-6.09,20.2-19.45,20.2c-13.23,0-19.32-10.47-19.38-20.2c-0.04-5.98,1.93-11.27,5.53-14.89c3.4-3.43,8.2-5.24,13.85-5.24
					C717.44,540.53,723.45,550.64,723.45,560.66z"/>
				<rect x="742.59" y="535.74" class="st1" width="5.75" height="49.84"/>
				<polygon class="st1" points="797.25,573.27 766.73,535.74 763.58,535.74 763.58,585.58 769.4,585.58 769.4,548.11 
					799.99,585.58 803,585.58 803,535.74 797.25,535.74 				"/>
				<polygon class="st1" points="814.62,535.81 814.62,541.21 831.87,541.21 831.87,585.58 837.68,585.58 837.68,541.21 
					854.92,541.21 854.92,535.81 				"/>
			</g>
		</g>
		<g>
			<path class="st2" d="M151.48,602.42c3.66,0,6.39,2.31,6.39,6.1c0,3.64-2.57,6.65-6.49,6.65c-4.46,0-6.31-3.46-6.31-6.39
				C145.08,606.14,146.99,602.42,151.48,602.42z M151.82,614.55c1.46,0,4.49-0.85,4.49-5.58c0-3.9-2.37-6-4.94-6
				c-2.72,0-4.75,1.79-4.75,5.35C146.62,612.11,148.9,614.55,151.82,614.55z"/>
			<path class="st2" d="M167.41,608.48c0-2.15,0-2.54-0.03-2.98c-0.03-0.47-0.11-0.7-0.59-0.76c-0.11-0.02-0.36-0.03-0.49-0.03
				c-0.05,0-0.11-0.07-0.11-0.11c0-0.08,0.07-0.11,0.23-0.11c0.65,0,1.55,0.03,1.66,0.03c0.31,0,1.38-0.03,2.03-0.03
				c1.84,0,2.49,0.57,2.73,0.78c0.32,0.29,0.72,0.91,0.72,1.66c0,1.98-1.5,3.3-3.69,3.3c-0.08,0-0.33,0-0.41-0.02
				c-0.07,0-0.15-0.07-0.15-0.13c0-0.11,0.08-0.15,0.37-0.15c1.55,0,2.65-0.98,2.65-2.23c0-0.46-0.05-1.35-0.81-2.1
				c-0.75-0.75-1.61-0.67-1.94-0.67c-0.24,0-0.65,0.06-0.8,0.1c-0.08,0.02-0.11,0.11-0.11,0.26v5.63c0,1.33,0,2.42,0.07,2.99
				c0.05,0.41,0.13,0.67,0.57,0.73c0.2,0.03,0.5,0.07,0.63,0.07c0.08,0,0.11,0.07,0.11,0.11c0,0.07-0.07,0.11-0.23,0.11
				c-0.78,0-1.72-0.05-1.79-0.05c-0.05,0-0.98,0.05-1.42,0.05c-0.15,0-0.23-0.03-0.23-0.11c0-0.05,0.03-0.11,0.11-0.11
				c0.13,0,0.31-0.03,0.44-0.07c0.28-0.06,0.31-0.32,0.37-0.73c0.08-0.57,0.08-1.66,0.08-2.99V608.48z"/>
			<path class="st2" d="M186.56,610.92c0,1.33,0,2.42,0.07,2.99c0.05,0.41,0.11,0.67,0.55,0.73c0.2,0.03,0.52,0.07,0.65,0.07
				c0.1,0,0.11,0.07,0.11,0.11c0,0.07-0.07,0.11-0.23,0.11c-0.78,0-1.69-0.05-1.77-0.05c-0.07,0-1.06,0.05-1.48,0.05
				c-0.16,0-0.23-0.03-0.23-0.11c0-0.05,0.03-0.1,0.11-0.1c0.13,0,0.29-0.03,0.42-0.07c0.29-0.07,0.37-0.34,0.42-0.75
				c0.07-0.57,0.07-1.66,0.07-2.99v-5.81l-2.07,0.03c-0.89,0.02-1.24,0.11-1.45,0.44c-0.16,0.24-0.18,0.34-0.23,0.44
				c-0.03,0.11-0.08,0.13-0.15,0.13c-0.03,0-0.1-0.03-0.1-0.11c0-0.15,0.28-1.38,0.31-1.5c0.02-0.08,0.1-0.26,0.15-0.26
				c0.1,0,0.24,0.11,0.63,0.16c0.41,0.05,0.96,0.06,1.12,0.06h5.4c0.47,0,0.8-0.03,1.02-0.06c0.21-0.03,0.34-0.07,0.41-0.07
				c0.07,0,0.07,0.08,0.07,0.16c0,0.42-0.05,1.41-0.05,1.58c0,0.11-0.06,0.18-0.13,0.18c-0.07,0-0.1-0.05-0.11-0.24l-0.02-0.15
				c-0.05-0.42-0.36-0.73-1.72-0.76l-1.79-0.03V610.92z"/>
			<path class="st2" d="M201.17,610.92c0,1.33,0,2.42,0.07,2.99c0.05,0.41,0.1,0.67,0.52,0.73c0.21,0.03,0.52,0.07,0.65,0.07
				c0.08,0,0.11,0.07,0.11,0.11c0,0.07-0.07,0.11-0.23,0.11c-0.8,0-1.72-0.05-1.79-0.05c-0.08,0-0.98,0.05-1.42,0.05
				c-0.15,0-0.23-0.03-0.23-0.11c0-0.05,0.03-0.11,0.11-0.11c0.13,0,0.31-0.03,0.44-0.07c0.28-0.06,0.32-0.32,0.37-0.73
				c0.07-0.57,0.08-1.66,0.08-2.99v-2.44c0-2.15,0-2.54-0.03-2.98c-0.03-0.47-0.15-0.68-0.46-0.75c-0.16-0.03-0.34-0.05-0.44-0.05
				c-0.07,0-0.11-0.07-0.11-0.11c0-0.08,0.07-0.11,0.23-0.11c0.47,0,1.37,0.03,1.45,0.03c0.06,0,0.99-0.03,1.43-0.03
				c0.16,0,0.23,0.03,0.23,0.11c0,0.05-0.07,0.11-0.11,0.11c-0.1,0-0.19,0-0.36,0.03c-0.39,0.08-0.47,0.28-0.5,0.76
				c-0.02,0.44-0.02,0.83-0.02,2.98V610.92z"/>
			<path class="st2" d="M223.42,613.17c0.05,0.49,0.15,1.24,0.73,1.43c0.41,0.13,0.78,0.13,0.93,0.13c0.06,0,0.11,0.03,0.11,0.1
				c0,0.08-0.13,0.13-0.29,0.13c-0.33,0-1.92-0.02-2.44-0.07c-0.34-0.03-0.41-0.08-0.41-0.15c0-0.05,0.03-0.1,0.1-0.11
				c0.08-0.02,0.1-0.23,0.07-0.49l-0.68-7.03h-0.03l-3.45,7.06c-0.29,0.6-0.37,0.73-0.5,0.73c-0.13,0-0.21-0.13-0.49-0.63
				c-0.37-0.68-1.32-2.46-1.68-3.2c-0.42-0.88-1.58-3.2-1.82-3.77h-0.07l-0.55,6.24c-0.02,0.21-0.02,0.47-0.02,0.7
				c0,0.21,0.13,0.34,0.34,0.39c0.24,0.06,0.46,0.08,0.55,0.08c0.05,0,0.11,0.05,0.11,0.1c0,0.1-0.1,0.13-0.26,0.13
				c-0.54,0-1.22-0.05-1.33-0.05c-0.13,0-0.81,0.05-1.2,0.05c-0.15,0-0.24-0.03-0.24-0.13c0-0.05,0.07-0.1,0.15-0.1
				c0.11,0,0.21-0.02,0.42-0.05c0.47-0.08,0.49-0.59,0.55-1.11l1.04-9.03c0.02-0.15,0.08-0.24,0.16-0.24c0.1,0,0.21,0.05,0.29,0.21
				l4.33,8.59l4.16-8.57c0.07-0.13,0.13-0.23,0.23-0.23c0.1,0,0.18,0.11,0.21,0.37L223.42,613.17z"/>
			<path class="st2" d="M235.53,610.92c0,1.33,0,2.42,0.06,2.99c0.05,0.41,0.1,0.67,0.52,0.73c0.21,0.03,0.52,0.07,0.65,0.07
				c0.08,0,0.11,0.07,0.11,0.11c0,0.07-0.07,0.11-0.23,0.11c-0.8,0-1.72-0.05-1.79-0.05c-0.08,0-0.98,0.05-1.42,0.05
				c-0.15,0-0.23-0.03-0.23-0.11c0-0.05,0.03-0.11,0.11-0.11c0.13,0,0.31-0.03,0.44-0.07c0.28-0.06,0.32-0.32,0.37-0.73
				c0.07-0.57,0.08-1.66,0.08-2.99v-2.44c0-2.15,0-2.54-0.03-2.98c-0.03-0.47-0.15-0.68-0.46-0.75c-0.16-0.03-0.34-0.05-0.44-0.05
				c-0.07,0-0.11-0.07-0.11-0.11c0-0.08,0.07-0.11,0.23-0.11c0.47,0,1.37,0.03,1.45,0.03c0.07,0,0.99-0.03,1.43-0.03
				c0.16,0,0.23,0.03,0.23,0.11c0,0.05-0.06,0.11-0.11,0.11c-0.1,0-0.2,0-0.36,0.03c-0.39,0.08-0.47,0.28-0.5,0.76
				c-0.02,0.44-0.02,0.83-0.02,2.98V610.92z"/>
			<path class="st2" d="M251.14,614.29c1.51,0,1.9-0.24,2.23-0.63c0.15-0.18,0.24-0.55,0.29-0.75c0.03-0.13,0.08-0.21,0.16-0.21
				c0.08,0,0.11,0.05,0.11,0.31c0,0.44-0.2,1.25-0.29,1.59c-0.08,0.34-0.1,0.36-0.42,0.36c-2.39,0-4.81-0.07-7.32-0.07
				c-0.16,0-0.26-0.02-0.26-0.11c0-0.07,0.02-0.16,0.2-0.42c2.15-3.11,4.26-6.18,6.23-9.25h-3.02c-0.73,0-1.58-0.02-2.03,0.23
				c-0.5,0.26-0.76,0.76-0.81,1.09c-0.03,0.21-0.11,0.24-0.2,0.24c-0.07,0-0.08-0.07-0.08-0.18c0-0.16,0.21-1.42,0.29-1.84
				c0.02-0.19,0.05-0.26,0.13-0.26c0.13,0,0.23,0.08,0.6,0.1c1.37,0.05,2.05,0.03,2.5,0.03h4c0.21,0,0.29,0.03,0.29,0.11
				c0,0.06-0.02,0.16-0.08,0.24c-2.08,3.19-4.16,6.28-6.33,9.42H251.14z"/>
			<path class="st2" d="M264.77,610.92c0,1.33,0,2.42,0.07,2.99c0.05,0.41,0.1,0.67,0.52,0.73c0.21,0.03,0.52,0.07,0.65,0.07
				c0.08,0,0.11,0.07,0.11,0.11c0,0.07-0.07,0.11-0.23,0.11c-0.8,0-1.72-0.05-1.79-0.05c-0.08,0-0.98,0.05-1.42,0.05
				c-0.15,0-0.23-0.03-0.23-0.11c0-0.05,0.03-0.11,0.11-0.11c0.13,0,0.31-0.03,0.44-0.07c0.28-0.06,0.32-0.32,0.37-0.73
				c0.07-0.57,0.08-1.66,0.08-2.99v-2.44c0-2.15,0-2.54-0.03-2.98c-0.03-0.47-0.15-0.68-0.46-0.75c-0.16-0.03-0.34-0.05-0.44-0.05
				c-0.07,0-0.11-0.07-0.11-0.11c0-0.08,0.07-0.11,0.23-0.11c0.47,0,1.37,0.03,1.45,0.03c0.07,0,0.99-0.03,1.43-0.03
				c0.16,0,0.23,0.03,0.23,0.11c0,0.05-0.07,0.11-0.11,0.11c-0.1,0-0.2,0-0.36,0.03c-0.39,0.08-0.47,0.28-0.5,0.76
				c-0.02,0.44-0.02,0.83-0.02,2.98V610.92z"/>
			<path class="st2" d="M276.58,613.05c0.03,1.14,0.16,1.48,0.55,1.58c0.26,0.06,0.59,0.08,0.72,0.08c0.07,0,0.11,0.05,0.11,0.11
				c0,0.08-0.1,0.11-0.26,0.11c-0.81,0-1.38-0.05-1.51-0.05s-0.73,0.05-1.38,0.05c-0.15,0-0.23-0.02-0.23-0.11
				c0-0.06,0.05-0.11,0.11-0.11c0.11,0,0.37-0.02,0.59-0.08c0.36-0.1,0.41-0.47,0.41-1.72v-7.92c0-0.55,0.08-0.7,0.2-0.7
				c0.16,0,0.41,0.28,0.55,0.42c0.23,0.23,2.31,2.44,4.52,4.72c1.41,1.46,2.94,3.11,3.38,3.56l-0.15-6.93
				c-0.02-0.89-0.1-1.2-0.54-1.28c-0.26-0.05-0.59-0.07-0.7-0.07c-0.1,0-0.11-0.08-0.11-0.13c0-0.08,0.11-0.1,0.28-0.1
				c0.65,0,1.33,0.03,1.5,0.03c0.16,0,0.63-0.03,1.22-0.03c0.15,0,0.26,0.02,0.26,0.1c0,0.05-0.07,0.13-0.16,0.13
				c-0.06,0-0.18,0-0.34,0.03c-0.47,0.1-0.5,0.37-0.5,1.2l-0.03,8.1c0,0.91-0.02,0.99-0.11,0.99c-0.15,0-0.29-0.11-1.09-0.85
				c-0.15-0.13-2.21-2.16-3.72-3.74c-1.66-1.74-3.27-3.43-3.71-3.92L276.58,613.05z"/>
			<path class="st2" d="M302.54,611.41c0-1.12-0.03-1.29-0.62-1.4c-0.11-0.02-0.36-0.03-0.49-0.03c-0.05,0-0.11-0.07-0.11-0.11
				c0-0.1,0.07-0.11,0.23-0.11c0.65,0,1.61,0.03,1.69,0.03c0.07,0,0.96-0.03,1.4-0.03c0.16,0,0.23,0.02,0.23,0.11
				c0,0.05-0.07,0.11-0.11,0.11c-0.1,0-0.19,0-0.36,0.03c-0.39,0.06-0.5,0.28-0.54,0.76c-0.02,0.44-0.02,0.85-0.02,1.43v1.55
				c0,0.63-0.02,0.65-0.2,0.75c-0.91,0.47-2.21,0.62-3.04,0.62c-1.09,0-3.12-0.13-4.72-1.48c-0.88-0.73-1.71-2.21-1.71-3.94
				c0-2.21,1.12-3.77,2.39-4.54c1.28-0.78,2.72-0.88,3.81-0.88c0.91,0,1.92,0.16,2.2,0.23c0.29,0.07,0.8,0.15,1.15,0.15
				c0.15,0,0.18,0.07,0.18,0.13c0,0.2-0.08,0.57-0.08,1.95c0,0.23-0.07,0.29-0.16,0.29c-0.08,0-0.1-0.08-0.1-0.21
				c-0.02-0.18-0.1-0.59-0.33-0.91c-0.36-0.52-1.45-1.07-3.3-1.07c-0.86,0-1.9,0.07-2.99,0.89c-0.83,0.63-1.41,1.87-1.41,3.48
				c0,1.95,1.01,3.35,1.51,3.82c1.14,1.06,2.34,1.45,3.66,1.45c0.5,0,1.17-0.05,1.55-0.26c0.18-0.1,0.29-0.16,0.29-0.42V611.41z"/>
			<path class="st2" d="M336.64,610.22c0,1.56,0,2.85,0.08,3.53c0.05,0.47,0.15,0.83,0.63,0.89c0.23,0.03,0.59,0.07,0.73,0.07
				c0.1,0,0.13,0.05,0.13,0.1c0,0.08-0.08,0.13-0.26,0.13c-0.89,0-1.92-0.05-2-0.05c-0.08,0-1.11,0.05-1.59,0.05
				c-0.18,0-0.26-0.03-0.26-0.13c0-0.05,0.03-0.1,0.13-0.1c0.15,0,0.34-0.03,0.49-0.07c0.33-0.06,0.41-0.42,0.47-0.89
				c0.08-0.68,0.08-1.97,0.08-3.53v-1.71c0-0.07-0.05-0.1-0.1-0.1h-6.9c-0.05,0-0.1,0.02-0.1,0.1v1.71c0,1.56,0,2.85,0.08,3.53
				c0.05,0.47,0.15,0.83,0.63,0.89c0.23,0.03,0.59,0.07,0.73,0.07c0.1,0,0.13,0.05,0.13,0.1c0,0.08-0.08,0.13-0.26,0.13
				c-0.89,0-1.92-0.05-2-0.05c-0.08,0-1.11,0.05-1.59,0.05c-0.18,0-0.26-0.03-0.26-0.13c0-0.05,0.03-0.1,0.13-0.1
				c0.15,0,0.34-0.03,0.49-0.07c0.32-0.06,0.41-0.42,0.47-0.89c0.08-0.68,0.08-1.97,0.08-3.53v-2.86c0-2.54,0-2.99-0.03-3.51
				c-0.03-0.55-0.16-0.81-0.7-0.93c-0.13-0.03-0.41-0.05-0.55-0.05c-0.06,0-0.13-0.03-0.13-0.1c0-0.1,0.08-0.13,0.26-0.13
				c0.73,0,1.76,0.05,1.84,0.05c0.08,0,1.11-0.05,1.59-0.05c0.18,0,0.26,0.03,0.26,0.13c0,0.06-0.07,0.1-0.13,0.1
				c-0.11,0-0.21,0.02-0.41,0.05c-0.44,0.08-0.57,0.36-0.6,0.93c-0.03,0.52-0.03,0.98-0.03,3.51v0.34c0,0.08,0.05,0.1,0.1,0.1h6.9
				c0.05,0,0.1-0.02,0.1-0.1v-0.34c0-2.54,0-2.99-0.03-3.51c-0.03-0.55-0.16-0.81-0.7-0.93c-0.13-0.03-0.41-0.05-0.55-0.05
				c-0.07,0-0.13-0.03-0.13-0.1c0-0.1,0.08-0.13,0.26-0.13c0.73,0,1.76,0.05,1.84,0.05c0.08,0,1.11-0.05,1.59-0.05
				c0.18,0,0.26,0.03,0.26,0.13c0,0.06-0.07,0.1-0.13,0.1c-0.11,0-0.21,0.02-0.41,0.05c-0.44,0.08-0.57,0.36-0.6,0.93
				c-0.03,0.52-0.03,0.98-0.03,3.51V610.22z"/>
			<path class="st2" d="M348.56,608.48c0-2.15,0-2.54-0.03-2.98c-0.03-0.47-0.11-0.7-0.59-0.76c-0.11-0.02-0.36-0.03-0.49-0.03
				c-0.05,0-0.11-0.07-0.11-0.11c0-0.08,0.07-0.11,0.23-0.11c0.65,0,1.58,0.03,1.66,0.03c0.1,0,3.09,0.02,3.42,0
				c0.28-0.02,0.54-0.06,0.65-0.08c0.07-0.02,0.13-0.06,0.2-0.06c0.05,0,0.07,0.06,0.07,0.13c0,0.1-0.08,0.26-0.11,0.65
				c-0.02,0.13-0.05,0.75-0.08,0.91c-0.02,0.07-0.07,0.15-0.13,0.15c-0.08,0-0.11-0.07-0.11-0.18c0-0.1-0.02-0.33-0.08-0.49
				c-0.1-0.23-0.24-0.33-1.02-0.42c-0.24-0.03-1.9-0.05-2.07-0.05c-0.07,0-0.08,0.05-0.08,0.15v3.76c0,0.1,0,0.15,0.08,0.15
				c0.18,0,2.07,0,2.39-0.03c0.34-0.03,0.55-0.05,0.7-0.19c0.1-0.1,0.16-0.18,0.21-0.18c0.05,0,0.08,0.03,0.08,0.11
				c0,0.08-0.08,0.31-0.11,0.76c-0.03,0.28-0.07,0.8-0.07,0.89c0,0.11-0.03,0.26-0.13,0.26c-0.07,0-0.1-0.05-0.1-0.13
				c0-0.13,0-0.28-0.07-0.46c-0.05-0.2-0.18-0.36-0.73-0.42c-0.39-0.05-1.92-0.07-2.16-0.07c-0.08,0-0.1,0.05-0.1,0.1v1.16
				c0,0.47-0.02,2.08,0,2.36c0.03,0.93,0.29,1.11,1.71,1.11c0.37,0,1.06,0,1.43-0.15c0.37-0.16,0.57-0.41,0.65-0.96
				c0.03-0.16,0.07-0.21,0.15-0.21c0.08,0,0.1,0.11,0.1,0.21c0,0.1-0.11,1.04-0.2,1.33c-0.1,0.36-0.24,0.36-0.8,0.36
				c-1.07,0-1.9-0.03-2.49-0.05c-0.6-0.03-0.98-0.03-1.19-0.03c-0.03,0-0.31,0-0.62,0.02c-0.28,0.02-0.6,0.03-0.83,0.03
				c-0.15,0-0.23-0.03-0.23-0.11c0-0.05,0.03-0.11,0.11-0.11c0.13,0,0.31-0.05,0.44-0.07c0.28-0.05,0.31-0.32,0.37-0.73
				c0.08-0.57,0.08-1.66,0.08-2.99V608.48z"/>
			<path class="st2" d="M366.21,604.76c0.18-0.46,0.24-0.54,0.34-0.54c0.15,0,0.2,0.19,0.34,0.5c0.26,0.59,2.55,6.29,3.43,8.39
				c0.52,1.24,0.91,1.42,1.22,1.51c0.21,0.06,0.42,0.08,0.57,0.08c0.08,0,0.18,0.03,0.18,0.11c0,0.08-0.16,0.11-0.33,0.11
				c-0.21,0-1.27,0-2.26-0.03c-0.28-0.02-0.5-0.02-0.5-0.1c0-0.07,0.03-0.07,0.1-0.1c0.08-0.03,0.23-0.15,0.13-0.37l-1.28-3.17
				c-0.03-0.06-0.05-0.08-0.13-0.08h-3.3c-0.07,0-0.11,0.03-0.15,0.11l-0.81,2.21c-0.13,0.34-0.21,0.68-0.21,0.93
				c0,0.28,0.24,0.37,0.49,0.37h0.13c0.11,0,0.15,0.05,0.15,0.11c0,0.08-0.08,0.11-0.21,0.11c-0.34,0-1.12-0.05-1.28-0.05
				c-0.15,0-0.86,0.05-1.45,0.05c-0.18,0-0.28-0.03-0.28-0.11c0-0.06,0.07-0.11,0.13-0.11c0.1,0,0.31-0.02,0.42-0.03
				c0.65-0.08,0.93-0.57,1.2-1.27L366.21,604.76z M367.8,610.52c0.07,0,0.07-0.03,0.05-0.1l-1.42-3.79c-0.08-0.21-0.16-0.21-0.24,0
				l-1.33,3.79c-0.02,0.06,0,0.1,0.05,0.1H367.8z"/>
			<path class="st2" d="M381.98,610.96c0,2.03,0.03,2.86,0.29,3.11c0.23,0.23,0.78,0.33,1.9,0.33c0.75,0,1.38-0.02,1.72-0.42
				c0.18-0.21,0.29-0.5,0.34-0.78c0.02-0.1,0.07-0.18,0.15-0.18c0.07,0,0.1,0.06,0.1,0.21s-0.1,0.98-0.21,1.38
				c-0.1,0.33-0.15,0.37-0.91,0.37c-1.02,0-1.82-0.02-2.49-0.05c-0.65-0.02-1.14-0.03-1.56-0.03c-0.07,0-0.31,0-0.59,0.02
				c-0.29,0.02-0.6,0.03-0.83,0.03c-0.15,0-0.23-0.03-0.23-0.11c0-0.05,0.03-0.11,0.11-0.11c0.13,0,0.31-0.03,0.44-0.07
				c0.28-0.06,0.31-0.32,0.37-0.73c0.08-0.57,0.08-1.66,0.08-2.99v-2.44c0-2.15,0-2.54-0.03-2.98c-0.03-0.47-0.11-0.7-0.59-0.76
				c-0.11-0.02-0.36-0.03-0.49-0.03c-0.05,0-0.11-0.07-0.11-0.11c0-0.08,0.07-0.11,0.23-0.11c0.65,0,1.55,0.03,1.63,0.03
				c0.07,0,1.14-0.03,1.58-0.03c0.15,0,0.23,0.03,0.23,0.11c0,0.05-0.07,0.1-0.11,0.1c-0.1,0-0.31,0.02-0.47,0.03
				c-0.42,0.08-0.5,0.29-0.54,0.78c-0.02,0.44-0.02,0.83-0.02,2.98V610.96z"/>
			<path class="st2" d="M398.12,610.92c0,1.33,0,2.42,0.07,2.99c0.05,0.41,0.11,0.67,0.55,0.73c0.2,0.03,0.52,0.07,0.65,0.07
				c0.1,0,0.11,0.07,0.11,0.11c0,0.07-0.07,0.11-0.23,0.11c-0.78,0-1.69-0.05-1.77-0.05c-0.07,0-1.06,0.05-1.48,0.05
				c-0.16,0-0.23-0.03-0.23-0.11c0-0.05,0.03-0.1,0.11-0.1c0.13,0,0.29-0.03,0.42-0.07c0.29-0.07,0.37-0.34,0.42-0.75
				c0.07-0.57,0.07-1.66,0.07-2.99v-5.81l-2.07,0.03c-0.89,0.02-1.24,0.11-1.45,0.44c-0.16,0.24-0.18,0.34-0.23,0.44
				c-0.03,0.11-0.08,0.13-0.15,0.13c-0.03,0-0.1-0.03-0.1-0.11c0-0.15,0.28-1.38,0.31-1.5c0.02-0.08,0.1-0.26,0.15-0.26
				c0.1,0,0.24,0.11,0.63,0.16c0.41,0.05,0.96,0.06,1.12,0.06h5.4c0.47,0,0.8-0.03,1.02-0.06c0.21-0.03,0.34-0.07,0.41-0.07
				c0.07,0,0.07,0.08,0.07,0.16c0,0.42-0.05,1.41-0.05,1.58c0,0.11-0.07,0.18-0.13,0.18c-0.07,0-0.1-0.05-0.11-0.24l-0.02-0.15
				c-0.05-0.42-0.36-0.73-1.72-0.76l-1.79-0.03V610.92z"/>
			<path class="st2" d="M420.15,610.92c0,1.33,0.02,2.42,0.08,2.99c0.05,0.41,0.08,0.67,0.52,0.73c0.2,0.03,0.52,0.07,0.63,0.07
				c0.1,0,0.13,0.07,0.13,0.11c0,0.07-0.08,0.11-0.24,0.11c-0.78,0-1.69-0.05-1.77-0.05c-0.07,0-0.99,0.05-1.41,0.05
				c-0.16,0-0.23-0.03-0.23-0.11c0-0.05,0.03-0.11,0.11-0.11c0.13,0,0.29-0.03,0.42-0.07c0.29-0.06,0.34-0.34,0.39-0.75
				c0.06-0.57,0.06-1.61,0.06-2.94v-1.38c0-0.07-0.03-0.08-0.08-0.08h-5.97c-0.05,0-0.08,0.02-0.08,0.08v1.38
				c0,1.33,0,2.39,0.07,2.96c0.05,0.41,0.1,0.67,0.52,0.73c0.21,0.03,0.52,0.07,0.65,0.07c0.08,0,0.11,0.07,0.11,0.11
				c0,0.07-0.07,0.11-0.23,0.11c-0.8,0-1.71-0.05-1.77-0.05c-0.08,0-0.99,0.05-1.43,0.05c-0.15,0-0.23-0.03-0.23-0.11
				c0-0.05,0.03-0.11,0.11-0.11c0.13,0,0.31-0.03,0.44-0.07c0.28-0.06,0.31-0.32,0.37-0.73c0.08-0.57,0.08-1.66,0.08-2.99v-2.44
				c0-2.15,0-2.54-0.03-2.98c-0.03-0.47-0.11-0.7-0.59-0.76c-0.11-0.02-0.36-0.03-0.49-0.03c-0.05,0-0.11-0.07-0.11-0.11
				c0-0.08,0.07-0.11,0.23-0.11c0.65,0,1.56,0.03,1.64,0.03c0.07,0,0.98-0.03,1.41-0.03c0.16,0,0.23,0.03,0.23,0.11
				c0,0.05-0.07,0.11-0.11,0.11c-0.1,0-0.2,0-0.36,0.03c-0.39,0.08-0.47,0.28-0.5,0.76c-0.02,0.44-0.02,0.86-0.02,3.01v0.29
				c0,0.08,0.03,0.08,0.08,0.08h5.97c0.05,0,0.08,0,0.08-0.08v-0.29c0-2.15-0.02-2.57-0.03-3.01c-0.03-0.47-0.1-0.7-0.57-0.76
				c-0.11-0.02-0.36-0.03-0.49-0.03c-0.07,0-0.11-0.07-0.11-0.11c0-0.08,0.07-0.11,0.23-0.11c0.63,0,1.56,0.03,1.63,0.03
				c0.08,0,0.99-0.03,1.42-0.03c0.16,0,0.24,0.03,0.24,0.11c0,0.05-0.07,0.11-0.13,0.11c-0.1,0-0.18,0-0.36,0.03
				c-0.37,0.08-0.46,0.28-0.49,0.76c-0.03,0.44-0.03,0.83-0.03,2.98V610.92z"/>
			<path class="st2" d="M430.43,613.77c0-0.46,0.59-0.88,1.01-0.88c0.08,0,0.13,0.05,0.29,0.31c0.21,0.33,0.28,0.55,0.28,0.7
				c0,0.13-0.08,0.42-0.16,0.63c-0.16,0.37-0.59,1.24-1.04,1.74c-0.06,0.08-0.15,0.15-0.21,0.15c-0.05,0-0.11-0.05-0.11-0.11
				c0-0.07,0.08-0.16,0.11-0.23c0.28-0.47,0.39-0.85,0.39-1.16C430.99,614.18,430.43,613.96,430.43,613.77z"/>
			<path class="st2" d="M454.88,612.73c0.03,1.33,0.2,1.76,0.63,1.89c0.31,0.08,0.67,0.1,0.81,0.1c0.08,0,0.13,0.03,0.13,0.1
				c0,0.1-0.1,0.13-0.29,0.13c-0.93,0-1.58-0.05-1.72-0.05c-0.15,0-0.83,0.05-1.56,0.05c-0.16,0-0.26-0.02-0.26-0.13
				c0-0.07,0.05-0.1,0.13-0.1c0.13,0,0.42-0.02,0.67-0.1c0.41-0.11,0.49-0.59,0.49-2.07l0.02-9.32c0-0.63,0.05-0.81,0.18-0.81
				s0.41,0.36,0.57,0.52c0.24,0.28,2.67,2.89,5.17,5.58c1.61,1.72,3.38,3.71,3.9,4.24l-0.18-8.26c-0.02-1.06-0.13-1.42-0.63-1.55
				c-0.29-0.07-0.67-0.08-0.8-0.08c-0.11,0-0.13-0.05-0.13-0.11c0-0.1,0.13-0.11,0.32-0.11c0.73,0,1.51,0.05,1.69,0.05
				c0.18,0,0.72-0.05,1.38-0.05c0.18,0,0.29,0.02,0.29,0.11c0,0.07-0.06,0.11-0.18,0.11c-0.08,0-0.2,0-0.39,0.05
				c-0.54,0.11-0.6,0.47-0.6,1.45l-0.03,9.53c0,1.07-0.03,1.15-0.15,1.15c-0.13,0-0.33-0.18-1.19-1.04
				c-0.18-0.16-2.52-2.55-4.24-4.41c-1.89-2.03-3.72-4.08-4.24-4.67L454.88,612.73z"/>
			<path class="st2" d="M478.15,604.76c0.18-0.46,0.24-0.54,0.34-0.54c0.15,0,0.2,0.19,0.34,0.5c0.26,0.59,2.55,6.29,3.43,8.39
				c0.52,1.24,0.91,1.42,1.22,1.51c0.21,0.06,0.42,0.08,0.57,0.08c0.08,0,0.18,0.03,0.18,0.11c0,0.08-0.16,0.11-0.32,0.11
				c-0.21,0-1.27,0-2.26-0.03c-0.28-0.02-0.5-0.02-0.5-0.1c0-0.07,0.03-0.07,0.1-0.1c0.08-0.03,0.23-0.15,0.13-0.37l-1.29-3.17
				c-0.03-0.06-0.05-0.08-0.13-0.08h-3.3c-0.07,0-0.11,0.03-0.15,0.11l-0.81,2.21c-0.13,0.34-0.21,0.68-0.21,0.93
				c0,0.28,0.24,0.37,0.49,0.37h0.13c0.11,0,0.15,0.05,0.15,0.11c0,0.08-0.08,0.11-0.21,0.11c-0.34,0-1.12-0.05-1.29-0.05
				c-0.15,0-0.86,0.05-1.45,0.05c-0.18,0-0.28-0.03-0.28-0.11c0-0.06,0.07-0.11,0.13-0.11c0.1,0,0.31-0.02,0.42-0.03
				c0.65-0.08,0.93-0.57,1.2-1.27L478.15,604.76z M479.74,610.52c0.06,0,0.06-0.03,0.05-0.1l-1.42-3.79c-0.08-0.21-0.16-0.21-0.24,0
				l-1.33,3.79c-0.02,0.06,0,0.1,0.05,0.1H479.74z"/>
			<path class="st2" d="M494.71,610.92c0,1.33,0,2.42,0.06,2.99c0.05,0.41,0.11,0.67,0.55,0.73c0.2,0.03,0.52,0.07,0.65,0.07
				c0.1,0,0.11,0.07,0.11,0.11c0,0.07-0.07,0.11-0.23,0.11c-0.78,0-1.69-0.05-1.77-0.05c-0.06,0-1.06,0.05-1.48,0.05
				c-0.16,0-0.23-0.03-0.23-0.11c0-0.05,0.03-0.1,0.11-0.1c0.13,0,0.29-0.03,0.42-0.07c0.29-0.07,0.37-0.34,0.42-0.75
				c0.06-0.57,0.06-1.66,0.06-2.99v-5.81l-2.07,0.03c-0.89,0.02-1.24,0.11-1.45,0.44c-0.16,0.24-0.18,0.34-0.23,0.44
				c-0.03,0.11-0.08,0.13-0.15,0.13c-0.03,0-0.1-0.03-0.1-0.11c0-0.15,0.28-1.38,0.31-1.5c0.02-0.08,0.1-0.26,0.15-0.26
				c0.1,0,0.24,0.11,0.63,0.16c0.41,0.05,0.96,0.06,1.12,0.06h5.4c0.47,0,0.8-0.03,1.03-0.06c0.21-0.03,0.34-0.07,0.41-0.07
				c0.06,0,0.06,0.08,0.06,0.16c0,0.42-0.05,1.41-0.05,1.58c0,0.11-0.06,0.18-0.13,0.18c-0.07,0-0.1-0.05-0.11-0.24l-0.02-0.15
				c-0.05-0.42-0.36-0.73-1.72-0.76l-1.79-0.03V610.92z"/>
			<path class="st2" d="M507.28,608.48c0-2.15,0-2.54-0.03-2.98c-0.03-0.44-0.11-0.7-0.59-0.76c-0.11-0.02-0.36-0.03-0.49-0.03
				c-0.05,0-0.11-0.07-0.11-0.11c0-0.08,0.07-0.11,0.23-0.11c0.65,0,1.51,0.03,1.64,0.03s1.02-0.03,1.45-0.03
				c0.16,0,0.24,0.03,0.24,0.11c0,0.05-0.06,0.11-0.13,0.11c-0.1,0-0.18,0-0.36,0.03c-0.37,0.07-0.46,0.31-0.49,0.76
				c-0.03,0.44-0.03,0.83-0.03,2.98v1.94c0,2,0.44,2.83,1.06,3.38c0.7,0.63,1.32,0.75,2.13,0.75c0.88,0,1.72-0.39,2.21-0.98
				c0.67-0.8,0.81-1.94,0.81-3.35v-1.74c0-2.15-0.02-2.54-0.03-2.98c-0.02-0.44-0.1-0.7-0.57-0.76c-0.11-0.02-0.36-0.03-0.49-0.03
				c-0.07,0-0.11-0.07-0.11-0.11c0-0.08,0.07-0.11,0.23-0.11c0.63,0,1.46,0.03,1.55,0.03c0.1,0,0.78-0.03,1.2-0.03
				c0.16,0,0.23,0.03,0.23,0.11c0,0.05-0.05,0.11-0.11,0.11c-0.1,0-0.18,0-0.36,0.03c-0.39,0.08-0.47,0.31-0.5,0.76
				c-0.03,0.44-0.02,0.83-0.02,2.98v1.48c0,1.5-0.19,3.17-1.33,4.15c-1.04,0.89-2.15,1.01-2.99,1.01c-0.47,0-1.97-0.03-2.98-0.98
				c-0.7-0.65-1.25-1.61-1.25-3.63V608.48z"/>
			<path class="st2" d="M526.42,608.48c0-2.15,0-2.54-0.03-2.98c-0.03-0.47-0.11-0.7-0.59-0.76c-0.11-0.02-0.36-0.03-0.49-0.03
				c-0.05,0-0.11-0.07-0.11-0.11c0-0.08,0.07-0.11,0.23-0.11c0.65,0,1.61,0.03,1.69,0.03c0.15,0,1.35-0.03,1.79-0.03
				c0.91,0,1.92,0.08,2.67,0.6c0.36,0.26,0.99,0.93,0.99,1.89c0,1.02-0.42,2.02-1.76,3.15c1.17,1.46,2.16,2.72,2.99,3.58
				c0.76,0.78,1.24,0.91,1.59,0.96c0.28,0.05,0.42,0.05,0.5,0.05c0.08,0,0.13,0.07,0.13,0.11c0,0.08-0.08,0.11-0.34,0.11h-0.89
				c-0.81,0-1.17-0.08-1.53-0.28c-0.62-0.33-1.14-0.99-1.95-2.03c-0.6-0.75-1.24-1.64-1.55-2.02c-0.07-0.07-0.1-0.08-0.2-0.08
				l-1.82-0.03c-0.07,0-0.1,0.03-0.1,0.11v0.32c0,1.33,0,2.41,0.06,2.98c0.05,0.41,0.13,0.67,0.57,0.73
				c0.19,0.03,0.5,0.07,0.63,0.07c0.1,0,0.11,0.07,0.11,0.11c0,0.07-0.06,0.11-0.23,0.11c-0.78,0-1.69-0.05-1.76-0.05
				c-0.02,0-0.98,0.05-1.42,0.05c-0.15,0-0.23-0.03-0.23-0.11c0-0.05,0.03-0.11,0.11-0.11c0.13,0,0.31-0.03,0.44-0.07
				c0.28-0.06,0.31-0.32,0.37-0.73c0.08-0.57,0.08-1.66,0.08-2.99V608.48z M527.66,609.66c0,0.08,0.03,0.13,0.1,0.18
				c0.21,0.11,0.94,0.21,1.58,0.21c0.34,0,0.73-0.02,1.07-0.24c0.49-0.32,0.86-1.06,0.86-2.11c0-1.72-0.94-2.72-2.47-2.72
				c-0.42,0-0.88,0.05-1.03,0.08c-0.06,0.03-0.11,0.08-0.11,0.16V609.66z"/>
			<path class="st2" d="M546.11,604.76c0.18-0.46,0.24-0.54,0.34-0.54c0.15,0,0.2,0.19,0.34,0.5c0.26,0.59,2.55,6.29,3.43,8.39
				c0.52,1.24,0.91,1.42,1.22,1.51c0.21,0.06,0.42,0.08,0.57,0.08c0.08,0,0.18,0.03,0.18,0.11c0,0.08-0.16,0.11-0.33,0.11
				c-0.21,0-1.27,0-2.26-0.03c-0.28-0.02-0.5-0.02-0.5-0.1c0-0.07,0.03-0.07,0.1-0.1c0.08-0.03,0.23-0.15,0.13-0.37l-1.28-3.17
				c-0.03-0.06-0.05-0.08-0.13-0.08h-3.3c-0.06,0-0.11,0.03-0.15,0.11l-0.81,2.21c-0.13,0.34-0.21,0.68-0.21,0.93
				c0,0.28,0.24,0.37,0.49,0.37h0.13c0.11,0,0.15,0.05,0.15,0.11c0,0.08-0.08,0.11-0.21,0.11c-0.34,0-1.12-0.05-1.28-0.05
				c-0.15,0-0.86,0.05-1.45,0.05c-0.18,0-0.28-0.03-0.28-0.11c0-0.06,0.06-0.11,0.13-0.11c0.1,0,0.31-0.02,0.42-0.03
				c0.65-0.08,0.93-0.57,1.2-1.27L546.11,604.76z M547.71,610.52c0.07,0,0.07-0.03,0.05-0.1l-1.42-3.79c-0.08-0.21-0.16-0.21-0.24,0
				l-1.33,3.79c-0.02,0.06,0,0.1,0.05,0.1H547.71z"/>
			<path class="st2" d="M561.89,610.96c0,2.03,0.03,2.86,0.29,3.11c0.23,0.23,0.78,0.33,1.9,0.33c0.75,0,1.38-0.02,1.72-0.42
				c0.18-0.21,0.29-0.5,0.34-0.78c0.02-0.1,0.07-0.18,0.15-0.18c0.06,0,0.1,0.06,0.1,0.21s-0.1,0.98-0.21,1.38
				c-0.1,0.33-0.15,0.37-0.91,0.37c-1.03,0-1.82-0.02-2.49-0.05c-0.65-0.02-1.14-0.03-1.56-0.03c-0.07,0-0.31,0-0.59,0.02
				c-0.29,0.02-0.6,0.03-0.83,0.03c-0.15,0-0.23-0.03-0.23-0.11c0-0.05,0.03-0.11,0.11-0.11c0.13,0,0.31-0.03,0.44-0.07
				c0.28-0.06,0.31-0.32,0.37-0.73c0.08-0.57,0.08-1.66,0.08-2.99v-2.44c0-2.15,0-2.54-0.03-2.98c-0.03-0.47-0.11-0.7-0.59-0.76
				c-0.11-0.02-0.36-0.03-0.49-0.03c-0.05,0-0.11-0.07-0.11-0.11c0-0.08,0.07-0.11,0.23-0.11c0.65,0,1.55,0.03,1.63,0.03
				c0.07,0,1.14-0.03,1.58-0.03c0.15,0,0.23,0.03,0.23,0.11c0,0.05-0.06,0.1-0.11,0.1c-0.1,0-0.31,0.02-0.47,0.03
				c-0.42,0.08-0.5,0.29-0.54,0.78c-0.02,0.44-0.02,0.83-0.02,2.98V610.96z"/>
			<path class="st2" d="M577.1,610.96c0,2.03,0.03,2.86,0.29,3.11c0.23,0.23,0.78,0.33,1.9,0.33c0.75,0,1.38-0.02,1.72-0.42
				c0.18-0.21,0.29-0.5,0.34-0.78c0.02-0.1,0.06-0.18,0.15-0.18c0.07,0,0.1,0.06,0.1,0.21s-0.1,0.98-0.21,1.38
				c-0.1,0.33-0.15,0.37-0.91,0.37c-1.02,0-1.82-0.02-2.49-0.05c-0.65-0.02-1.14-0.03-1.56-0.03c-0.07,0-0.31,0-0.59,0.02
				c-0.29,0.02-0.6,0.03-0.83,0.03c-0.15,0-0.23-0.03-0.23-0.11c0-0.05,0.03-0.11,0.11-0.11c0.13,0,0.31-0.03,0.44-0.07
				c0.28-0.06,0.31-0.32,0.37-0.73c0.08-0.57,0.08-1.66,0.08-2.99v-2.44c0-2.15,0-2.54-0.03-2.98c-0.03-0.47-0.11-0.7-0.59-0.76
				c-0.11-0.02-0.36-0.03-0.49-0.03c-0.05,0-0.11-0.07-0.11-0.11c0-0.08,0.06-0.11,0.23-0.11c0.65,0,1.55,0.03,1.63,0.03
				c0.06,0,1.14-0.03,1.58-0.03c0.15,0,0.23,0.03,0.23,0.11c0,0.05-0.07,0.1-0.11,0.1c-0.1,0-0.31,0.02-0.47,0.03
				c-0.42,0.08-0.5,0.29-0.54,0.78c-0.02,0.44-0.02,0.83-0.02,2.98V610.96z"/>
			<path class="st2" d="M592.09,611.35c0-0.75-0.1-1.02-0.31-1.41c-0.11-0.21-2.05-3.29-2.54-4.02c-0.34-0.52-0.68-0.83-0.94-1.01
				c-0.21-0.13-0.49-0.2-0.6-0.2c-0.08,0-0.15-0.07-0.15-0.13c0-0.07,0.05-0.1,0.18-0.1c0.28,0,1.35,0.03,1.42,0.03
				c0.1,0,0.68-0.03,1.24-0.03c0.16,0,0.2,0.03,0.2,0.1c0,0.05-0.1,0.1-0.23,0.15c-0.11,0.05-0.18,0.11-0.18,0.23
				c0,0.19,0.1,0.36,0.19,0.54l2.6,4.31c0.29-0.59,2.08-3.54,2.34-4c0.18-0.31,0.24-0.54,0.24-0.72c0-0.2-0.07-0.31-0.23-0.36
				c-0.13-0.03-0.21-0.1-0.21-0.16c0-0.05,0.08-0.08,0.23-0.08c0.37,0,0.88,0.03,0.99,0.03c0.1,0,1.12-0.03,1.4-0.03
				c0.1,0,0.18,0.03,0.18,0.08c0,0.07-0.06,0.15-0.18,0.15c-0.16,0-0.44,0.05-0.67,0.18c-0.28,0.16-0.41,0.31-0.72,0.68
				c-0.47,0.55-2.49,3.81-2.78,4.39c-0.24,0.49-0.18,0.93-0.18,1.38v1.19c0,0.23,0,0.81,0.05,1.38c0.03,0.41,0.13,0.67,0.55,0.73
				c0.2,0.03,0.52,0.07,0.65,0.07c0.08,0,0.11,0.07,0.11,0.11c0,0.07-0.08,0.11-0.23,0.11c-0.8,0-1.72-0.05-1.81-0.05
				c-0.06,0-0.98,0.05-1.4,0.05c-0.16,0-0.23-0.03-0.23-0.11c0-0.05,0.03-0.11,0.11-0.11c0.13,0,0.29-0.03,0.42-0.07
				c0.29-0.06,0.39-0.32,0.42-0.73c0.03-0.57,0.03-1.16,0.03-1.38V611.35z"/>
			<path class="st2" d="M620.31,604.76c0.18-0.46,0.24-0.54,0.34-0.54c0.15,0,0.19,0.19,0.34,0.5c0.26,0.59,2.55,6.29,3.43,8.39
				c0.52,1.24,0.91,1.42,1.22,1.51c0.21,0.06,0.42,0.08,0.57,0.08c0.08,0,0.18,0.03,0.18,0.11c0,0.08-0.16,0.11-0.33,0.11
				c-0.21,0-1.27,0-2.26-0.03c-0.28-0.02-0.5-0.02-0.5-0.1c0-0.07,0.03-0.07,0.1-0.1c0.08-0.03,0.23-0.15,0.13-0.37l-1.29-3.17
				c-0.03-0.06-0.05-0.08-0.13-0.08h-3.3c-0.06,0-0.11,0.03-0.15,0.11l-0.81,2.21c-0.13,0.34-0.21,0.68-0.21,0.93
				c0,0.28,0.24,0.37,0.49,0.37h0.13c0.11,0,0.15,0.05,0.15,0.11c0,0.08-0.08,0.11-0.21,0.11c-0.34,0-1.12-0.05-1.29-0.05
				c-0.15,0-0.86,0.05-1.45,0.05c-0.18,0-0.28-0.03-0.28-0.11c0-0.06,0.07-0.11,0.13-0.11c0.1,0,0.31-0.02,0.42-0.03
				c0.65-0.08,0.93-0.57,1.2-1.27L620.31,604.76z M621.9,610.52c0.06,0,0.06-0.03,0.05-0.1l-1.42-3.79c-0.08-0.21-0.16-0.21-0.24,0
				l-1.33,3.79c-0.02,0.06,0,0.1,0.05,0.1H621.9z"/>
			<path class="st2" d="M635.38,613.05c0.03,1.14,0.16,1.48,0.55,1.58c0.26,0.06,0.59,0.08,0.72,0.08c0.07,0,0.11,0.05,0.11,0.11
				c0,0.08-0.1,0.11-0.26,0.11c-0.81,0-1.38-0.05-1.51-0.05c-0.13,0-0.73,0.05-1.38,0.05c-0.15,0-0.23-0.02-0.23-0.11
				c0-0.06,0.05-0.11,0.11-0.11c0.11,0,0.37-0.02,0.59-0.08c0.36-0.1,0.41-0.47,0.41-1.72v-7.92c0-0.55,0.08-0.7,0.19-0.7
				c0.16,0,0.41,0.28,0.55,0.42c0.23,0.23,2.31,2.44,4.52,4.72c1.42,1.46,2.94,3.11,3.38,3.56l-0.15-6.93
				c-0.02-0.89-0.1-1.2-0.54-1.28c-0.26-0.05-0.59-0.07-0.7-0.07c-0.1,0-0.11-0.08-0.11-0.13c0-0.08,0.11-0.1,0.28-0.1
				c0.65,0,1.33,0.03,1.5,0.03c0.16,0,0.63-0.03,1.22-0.03c0.15,0,0.26,0.02,0.26,0.1c0,0.05-0.07,0.13-0.16,0.13
				c-0.06,0-0.18,0-0.34,0.03c-0.47,0.1-0.5,0.37-0.5,1.2l-0.03,8.1c0,0.91-0.02,0.99-0.11,0.99c-0.15,0-0.29-0.11-1.09-0.85
				c-0.15-0.13-2.21-2.16-3.72-3.74c-1.66-1.74-3.27-3.43-3.71-3.92L635.38,613.05z"/>
			<path class="st2" d="M654.51,608.48c0-2.15,0-2.54-0.03-2.98c-0.03-0.47-0.11-0.7-0.59-0.76c-0.11-0.02-0.36-0.03-0.49-0.03
				c-0.05,0-0.11-0.07-0.11-0.11c0-0.08,0.07-0.11,0.23-0.11c0.65,0,1.58,0.03,1.66,0.03c0.16,0,1.07-0.03,1.92-0.03
				c1.43,0,4.05-0.13,5.74,1.58c0.72,0.72,1.4,1.87,1.4,3.51c0,1.74-0.75,3.07-1.54,3.89c-0.62,0.63-1.9,1.59-4.34,1.59
				c-0.62,0-1.38-0.05-2-0.08c-0.62-0.05-1.11-0.08-1.17-0.08c-0.03,0-0.29,0.02-0.59,0.02c-0.29,0.02-0.63,0.03-0.86,0.03
				c-0.15,0-0.23-0.03-0.23-0.11c0-0.05,0.03-0.11,0.11-0.11c0.13,0,0.31-0.03,0.44-0.07c0.28-0.06,0.31-0.32,0.37-0.73
				c0.08-0.57,0.08-1.66,0.08-2.99V608.48z M655.81,609.98c0,1.46,0,2.75,0.02,3.01c0.02,0.34,0.05,0.85,0.16,0.99
				c0.18,0.26,0.68,0.55,2.37,0.55c1.32,0,2.49-0.44,3.35-1.25c0.75-0.7,1.12-2.02,1.12-3.29c0-1.76-0.76-2.88-1.35-3.46
				c-1.35-1.37-2.93-1.55-4.63-1.55c-0.28,0-0.73,0.05-0.86,0.1c-0.13,0.05-0.18,0.11-0.18,0.28V609.98z"/>
			<path class="st2" d="M685.3,614.73c-0.23-0.11-0.24-0.18-0.24-0.62c0-0.81,0.07-1.46,0.08-1.72c0.02-0.18,0.05-0.26,0.13-0.26
				c0.1,0,0.11,0.05,0.11,0.18c0,0.15,0,0.37,0.05,0.6c0.24,1.2,1.32,1.66,2.41,1.66c1.56,0,2.33-1.12,2.33-2.16
				c0-1.12-0.47-1.77-1.87-2.93l-0.73-0.6c-1.72-1.42-2.11-2.42-2.11-3.53c0-1.74,1.3-2.93,3.37-2.93c0.63,0,1.11,0.06,1.51,0.16
				c0.31,0.07,0.44,0.08,0.57,0.08c0.13,0,0.16,0.03,0.16,0.11c0,0.08-0.07,0.62-0.07,1.72c0,0.26-0.03,0.37-0.11,0.37
				c-0.1,0-0.11-0.08-0.13-0.21c-0.02-0.2-0.11-0.63-0.21-0.81c-0.1-0.18-0.54-0.86-2.03-0.86c-1.12,0-2,0.7-2,1.89
				c0,0.93,0.42,1.51,1.98,2.73l0.46,0.36c1.92,1.51,2.37,2.52,2.37,3.82c0,0.67-0.26,1.9-1.38,2.7c-0.7,0.49-1.58,0.68-2.46,0.68
				C686.71,615.17,685.96,615.05,685.3,614.73z"/>
			<path class="st2" d="M701.01,608.48c0-2.15,0-2.54-0.03-2.98c-0.03-0.44-0.11-0.7-0.59-0.76c-0.11-0.02-0.36-0.03-0.49-0.03
				c-0.05,0-0.11-0.07-0.11-0.11c0-0.08,0.07-0.11,0.23-0.11c0.65,0,1.51,0.03,1.64,0.03c0.13,0,1.02-0.03,1.45-0.03
				c0.16,0,0.24,0.03,0.24,0.11c0,0.05-0.07,0.11-0.13,0.11c-0.1,0-0.18,0-0.36,0.03c-0.37,0.07-0.45,0.31-0.49,0.76
				c-0.03,0.44-0.03,0.83-0.03,2.98v1.94c0,2,0.44,2.83,1.06,3.38c0.7,0.63,1.32,0.75,2.13,0.75c0.88,0,1.72-0.39,2.21-0.98
				c0.67-0.8,0.81-1.94,0.81-3.35v-1.74c0-2.15-0.02-2.54-0.03-2.98c-0.02-0.44-0.1-0.7-0.57-0.76c-0.11-0.02-0.36-0.03-0.49-0.03
				c-0.07,0-0.11-0.07-0.11-0.11c0-0.08,0.07-0.11,0.23-0.11c0.63,0,1.46,0.03,1.55,0.03c0.1,0,0.78-0.03,1.2-0.03
				c0.16,0,0.23,0.03,0.23,0.11c0,0.05-0.05,0.11-0.11,0.11c-0.1,0-0.18,0-0.36,0.03c-0.39,0.08-0.47,0.31-0.5,0.76
				c-0.03,0.44-0.02,0.83-0.02,2.98v1.48c0,1.5-0.19,3.17-1.33,4.15c-1.04,0.89-2.15,1.01-2.99,1.01c-0.47,0-1.97-0.03-2.98-0.98
				c-0.7-0.65-1.25-1.61-1.25-3.63V608.48z"/>
			<path class="st2" d="M718.95,614.75c-0.2-0.1-0.21-0.15-0.21-0.52c0-0.68,0.06-1.24,0.08-1.46c0-0.15,0.03-0.23,0.11-0.23
				c0.08,0,0.13,0.05,0.13,0.16c0,0.11,0,0.31,0.05,0.5c0.23,1.01,1.3,1.37,2.26,1.37c1.42,0,2.15-0.8,2.15-1.84
				c0-0.99-0.54-1.46-1.81-2.41l-0.65-0.49c-1.55-1.16-2.05-2-2.05-2.96c0-1.63,1.29-2.6,3.17-2.6c0.57,0,1.14,0.08,1.48,0.16
				c0.28,0.07,0.39,0.07,0.5,0.07c0.11,0,0.15,0.02,0.15,0.1c0,0.07-0.06,0.52-0.06,1.46c0,0.21-0.02,0.31-0.11,0.31
				c-0.1,0-0.11-0.06-0.13-0.18c-0.02-0.16-0.13-0.54-0.21-0.68c-0.1-0.16-0.57-0.68-1.85-0.68c-1.04,0-1.9,0.52-1.9,1.5
				c0,0.88,0.44,1.38,1.85,2.34l0.41,0.28c1.74,1.19,2.34,2.15,2.34,3.33c0,0.81-0.31,1.69-1.33,2.36c-0.6,0.39-1.5,0.49-2.28,0.49
				C720.36,615.12,719.53,615.02,718.95,614.75z"/>
			<path class="st2" d="M738.3,610.92c0,1.33,0,2.42,0.07,2.99c0.05,0.41,0.11,0.67,0.55,0.73c0.19,0.03,0.52,0.07,0.65,0.07
				c0.1,0,0.11,0.07,0.11,0.11c0,0.07-0.07,0.11-0.23,0.11c-0.78,0-1.69-0.05-1.77-0.05c-0.07,0-1.06,0.05-1.48,0.05
				c-0.16,0-0.23-0.03-0.23-0.11c0-0.05,0.03-0.1,0.11-0.1c0.13,0,0.29-0.03,0.42-0.07c0.29-0.07,0.37-0.34,0.42-0.75
				c0.07-0.57,0.07-1.66,0.07-2.99v-5.81l-2.07,0.03c-0.9,0.02-1.24,0.11-1.45,0.44c-0.16,0.24-0.18,0.34-0.23,0.44
				c-0.03,0.11-0.08,0.13-0.15,0.13c-0.03,0-0.1-0.03-0.1-0.11c0-0.15,0.28-1.38,0.31-1.5c0.02-0.08,0.1-0.26,0.15-0.26
				c0.1,0,0.24,0.11,0.63,0.16c0.41,0.05,0.96,0.06,1.12,0.06h5.4c0.47,0,0.8-0.03,1.02-0.06c0.21-0.03,0.34-0.07,0.41-0.07
				c0.07,0,0.07,0.08,0.07,0.16c0,0.42-0.05,1.41-0.05,1.58c0,0.11-0.07,0.18-0.13,0.18c-0.07,0-0.1-0.05-0.11-0.24l-0.02-0.15
				c-0.05-0.42-0.36-0.73-1.72-0.76l-1.79-0.03V610.92z"/>
			<path class="st2" d="M753.12,604.76c0.18-0.46,0.24-0.54,0.34-0.54c0.15,0,0.19,0.19,0.34,0.5c0.26,0.59,2.55,6.29,3.43,8.39
				c0.52,1.24,0.91,1.42,1.22,1.51c0.21,0.06,0.42,0.08,0.57,0.08c0.08,0,0.18,0.03,0.18,0.11c0,0.08-0.16,0.11-0.33,0.11
				c-0.21,0-1.27,0-2.26-0.03c-0.28-0.02-0.5-0.02-0.5-0.1c0-0.07,0.03-0.07,0.1-0.1c0.08-0.03,0.23-0.15,0.13-0.37l-1.29-3.17
				c-0.03-0.06-0.05-0.08-0.13-0.08h-3.3c-0.06,0-0.11,0.03-0.15,0.11l-0.81,2.21c-0.13,0.34-0.21,0.68-0.21,0.93
				c0,0.28,0.24,0.37,0.49,0.37h0.13c0.11,0,0.15,0.05,0.15,0.11c0,0.08-0.08,0.11-0.21,0.11c-0.34,0-1.12-0.05-1.29-0.05
				c-0.15,0-0.86,0.05-1.45,0.05c-0.18,0-0.28-0.03-0.28-0.11c0-0.06,0.07-0.11,0.13-0.11c0.1,0,0.31-0.02,0.42-0.03
				c0.65-0.08,0.93-0.57,1.2-1.27L753.12,604.76z M754.71,610.52c0.06,0,0.06-0.03,0.05-0.1l-1.42-3.79c-0.08-0.21-0.16-0.21-0.24,0
				l-1.33,3.79c-0.02,0.06,0,0.1,0.05,0.1H754.71z"/>
			<path class="st2" d="M768.89,610.92c0,1.33,0,2.42,0.06,2.99c0.05,0.41,0.1,0.67,0.52,0.73c0.21,0.03,0.52,0.07,0.65,0.07
				c0.08,0,0.11,0.07,0.11,0.11c0,0.07-0.07,0.11-0.23,0.11c-0.8,0-1.72-0.05-1.79-0.05c-0.08,0-0.98,0.05-1.41,0.05
				c-0.15,0-0.23-0.03-0.23-0.11c0-0.05,0.03-0.11,0.11-0.11c0.13,0,0.31-0.03,0.44-0.07c0.28-0.06,0.33-0.32,0.37-0.73
				c0.07-0.57,0.08-1.66,0.08-2.99v-2.44c0-2.15,0-2.54-0.03-2.98c-0.03-0.47-0.15-0.68-0.46-0.75c-0.16-0.03-0.34-0.05-0.44-0.05
				c-0.07,0-0.11-0.07-0.11-0.11c0-0.08,0.07-0.11,0.23-0.11c0.47,0,1.37,0.03,1.45,0.03c0.07,0,0.99-0.03,1.43-0.03
				c0.16,0,0.23,0.03,0.23,0.11c0,0.05-0.07,0.11-0.11,0.11c-0.1,0-0.2,0-0.36,0.03c-0.39,0.08-0.47,0.28-0.5,0.76
				c-0.02,0.44-0.02,0.83-0.02,2.98V610.92z"/>
			<path class="st2" d="M780.7,613.05c0.03,1.14,0.16,1.48,0.55,1.58c0.26,0.06,0.59,0.08,0.72,0.08c0.07,0,0.11,0.05,0.11,0.11
				c0,0.08-0.1,0.11-0.26,0.11c-0.81,0-1.38-0.05-1.51-0.05s-0.73,0.05-1.38,0.05c-0.15,0-0.23-0.02-0.23-0.11
				c0-0.06,0.05-0.11,0.11-0.11c0.11,0,0.37-0.02,0.59-0.08c0.36-0.1,0.41-0.47,0.41-1.72v-7.92c0-0.55,0.08-0.7,0.19-0.7
				c0.16,0,0.41,0.28,0.55,0.42c0.23,0.23,2.31,2.44,4.52,4.72c1.42,1.46,2.94,3.11,3.38,3.56l-0.15-6.93
				c-0.02-0.89-0.1-1.2-0.54-1.28c-0.26-0.05-0.59-0.07-0.7-0.07c-0.1,0-0.11-0.08-0.11-0.13c0-0.08,0.11-0.1,0.28-0.1
				c0.65,0,1.33,0.03,1.5,0.03c0.16,0,0.63-0.03,1.22-0.03c0.15,0,0.26,0.02,0.26,0.1c0,0.05-0.07,0.13-0.16,0.13
				c-0.06,0-0.18,0-0.34,0.03c-0.47,0.1-0.5,0.37-0.5,1.2l-0.03,8.1c0,0.91-0.02,0.99-0.11,0.99c-0.15,0-0.29-0.11-1.09-0.85
				c-0.15-0.13-2.21-2.16-3.72-3.74c-1.66-1.74-3.27-3.43-3.71-3.92L780.7,613.05z"/>
			<path class="st2" d="M802.33,604.76c0.18-0.46,0.24-0.54,0.34-0.54c0.15,0,0.19,0.19,0.34,0.5c0.26,0.59,2.55,6.29,3.43,8.39
				c0.52,1.24,0.91,1.42,1.22,1.51c0.21,0.06,0.42,0.08,0.57,0.08c0.08,0,0.18,0.03,0.18,0.11c0,0.08-0.16,0.11-0.33,0.11
				c-0.21,0-1.27,0-2.26-0.03c-0.28-0.02-0.5-0.02-0.5-0.1c0-0.07,0.03-0.07,0.1-0.1c0.08-0.03,0.23-0.15,0.13-0.37l-1.29-3.17
				c-0.03-0.06-0.05-0.08-0.13-0.08h-3.3c-0.06,0-0.11,0.03-0.15,0.11l-0.81,2.21c-0.13,0.34-0.21,0.68-0.21,0.93
				c0,0.28,0.24,0.37,0.49,0.37h0.13c0.11,0,0.15,0.05,0.15,0.11c0,0.08-0.08,0.11-0.21,0.11c-0.34,0-1.12-0.05-1.29-0.05
				c-0.15,0-0.86,0.05-1.45,0.05c-0.18,0-0.28-0.03-0.28-0.11c0-0.06,0.07-0.11,0.13-0.11c0.1,0,0.31-0.02,0.42-0.03
				c0.65-0.08,0.93-0.57,1.2-1.27L802.33,604.76z M803.92,610.52c0.06,0,0.06-0.03,0.05-0.1l-1.42-3.79c-0.08-0.21-0.16-0.21-0.24,0
				l-1.33,3.79c-0.02,0.06,0,0.1,0.05,0.1H803.92z"/>
			<path class="st2" d="M816.8,608.48c0-2.15,0-2.54-0.03-2.98c-0.03-0.47-0.11-0.73-0.59-0.8c-0.11-0.02-0.36-0.03-0.49-0.03
				c-0.05,0-0.11-0.03-0.11-0.08c0-0.08,0.07-0.11,0.23-0.11c0.65,0,1.58,0.03,1.66,0.03c0.34,0,1.01-0.03,1.68-0.03
				c2.39,0,3.01,1.38,3.01,2.11c0,1.09-0.72,1.77-1.45,2.42c1.09,0.33,2.52,1.32,2.52,2.88c0,1.55-1.15,3.07-3.59,3.07
				c-0.26,0-0.78-0.02-1.24-0.05c-0.46-0.02-0.86-0.03-0.93-0.03c-0.03,0-0.29,0.02-0.59,0.02c-0.29,0.02-0.63,0.03-0.86,0.03
				c-0.15,0-0.23-0.03-0.23-0.11c0-0.05,0.03-0.08,0.11-0.08c0.13,0,0.31-0.05,0.44-0.06c0.28-0.05,0.31-0.36,0.37-0.76
				c0.08-0.57,0.08-1.66,0.08-2.99V608.48z M818.04,608.78c0,0.1,0.03,0.13,0.1,0.15c0.08,0.02,0.34,0.06,0.88,0.06
				c0.8,0,1.11-0.03,1.4-0.36c0.31-0.34,0.55-0.81,0.55-1.48c0-1.06-0.59-2.23-2.02-2.23c-0.16,0-0.5,0.02-0.73,0.07
				c-0.13,0.03-0.18,0.06-0.18,0.15V608.78z M818.04,610.31c0,1.07,0,2.73,0.02,2.94c0.05,0.67,0.05,0.83,0.49,1.04
				c0.39,0.18,0.99,0.2,1.25,0.2c0.94,0,2.1-0.36,2.1-2.13c0-0.62-0.24-1.81-1.37-2.52c-0.49-0.31-0.94-0.29-1.29-0.36
				c-0.18-0.03-0.89-0.03-1.12-0.03c-0.05,0-0.08,0.03-0.08,0.1V610.31z"/>
			<path class="st2" d="M834.11,610.96c0,2.03,0.03,2.86,0.29,3.11c0.23,0.23,0.78,0.33,1.9,0.33c0.75,0,1.38-0.02,1.72-0.42
				c0.18-0.21,0.29-0.5,0.34-0.78c0.02-0.1,0.07-0.18,0.15-0.18c0.07,0,0.1,0.06,0.1,0.21s-0.1,0.98-0.21,1.38
				c-0.1,0.33-0.15,0.37-0.91,0.37c-1.03,0-1.82-0.02-2.49-0.05c-0.65-0.02-1.14-0.03-1.56-0.03c-0.06,0-0.31,0-0.59,0.02
				c-0.29,0.02-0.6,0.03-0.83,0.03c-0.15,0-0.23-0.03-0.23-0.11c0-0.05,0.03-0.11,0.11-0.11c0.13,0,0.31-0.03,0.44-0.07
				c0.28-0.06,0.31-0.32,0.37-0.73c0.08-0.57,0.08-1.66,0.08-2.99v-2.44c0-2.15,0-2.54-0.03-2.98c-0.03-0.47-0.11-0.7-0.59-0.76
				c-0.11-0.02-0.36-0.03-0.49-0.03c-0.05,0-0.11-0.07-0.11-0.11c0-0.08,0.07-0.11,0.23-0.11c0.65,0,1.55,0.03,1.63,0.03
				c0.07,0,1.14-0.03,1.58-0.03c0.15,0,0.23,0.03,0.23,0.11c0,0.05-0.06,0.1-0.11,0.1c-0.1,0-0.31,0.02-0.47,0.03
				c-0.42,0.08-0.5,0.29-0.54,0.78c-0.02,0.44-0.02,0.83-0.02,2.98V610.96z"/>
			<path class="st2" d="M849.1,611.35c0-0.75-0.1-1.02-0.31-1.41c-0.11-0.21-2.05-3.29-2.54-4.02c-0.34-0.52-0.68-0.83-0.94-1.01
				c-0.21-0.13-0.49-0.2-0.6-0.2c-0.08,0-0.15-0.07-0.15-0.13c0-0.07,0.05-0.1,0.18-0.1c0.28,0,1.35,0.03,1.41,0.03
				c0.1,0,0.68-0.03,1.24-0.03c0.16,0,0.2,0.03,0.2,0.1c0,0.05-0.1,0.1-0.23,0.15c-0.11,0.05-0.18,0.11-0.18,0.23
				c0,0.19,0.1,0.36,0.19,0.54l2.6,4.31c0.29-0.59,2.08-3.54,2.34-4c0.18-0.31,0.24-0.54,0.24-0.72c0-0.2-0.07-0.31-0.23-0.36
				c-0.13-0.03-0.21-0.1-0.21-0.16c0-0.05,0.08-0.08,0.23-0.08c0.37,0,0.88,0.03,0.99,0.03c0.1,0,1.12-0.03,1.4-0.03
				c0.1,0,0.18,0.03,0.18,0.08c0,0.07-0.07,0.15-0.18,0.15c-0.16,0-0.44,0.05-0.67,0.18c-0.28,0.16-0.41,0.31-0.72,0.68
				c-0.47,0.55-2.49,3.81-2.78,4.39c-0.24,0.49-0.18,0.93-0.18,1.38v1.19c0,0.23,0,0.81,0.05,1.38c0.03,0.41,0.13,0.67,0.55,0.73
				c0.2,0.03,0.52,0.07,0.65,0.07c0.08,0,0.11,0.07,0.11,0.11c0,0.07-0.08,0.11-0.23,0.11c-0.8,0-1.72-0.05-1.81-0.05
				c-0.06,0-0.98,0.05-1.4,0.05c-0.16,0-0.23-0.03-0.23-0.11c0-0.05,0.03-0.11,0.11-0.11c0.13,0,0.29-0.03,0.42-0.07
				c0.29-0.06,0.39-0.32,0.42-0.73c0.03-0.57,0.03-1.16,0.03-1.38V611.35z"/>
		</g>
		<g>
			<g>
				<g>
					<g>
						<circle class="st2" cx="622.81" cy="264.8" r="10.7"/>
						<circle class="st2" cx="582.12" cy="288.29" r="10.7"/>
						<g>
							
								<rect x="535.2" y="291.45" transform="matrix(0.866 -0.5 0.5 0.866 -69.3837 326.4564)" class="st2" width="78.57" height="2.5"/>
						</g>
					</g>
					<g>
						<circle class="st2" cx="623.46" cy="406.99" r="10.7"/>
						<circle class="st2" cx="582.77" cy="383.49" r="10.7"/>
						<g>
							
								<rect x="573.89" y="339.8" transform="matrix(0.5 -0.866 0.866 0.5 -40.7276 687.6295)" class="st2" width="2.5" height="78.57"/>
						</g>
					</g>
					<g>
						<path class="st2" d="M489.96,478.65c0-5.91,4.79-10.7,10.7-10.7c5.91,0,10.7,4.79,10.7,10.7c0,5.91-4.79,10.7-10.7,10.7
							C494.75,489.34,489.96,484.55,489.96,478.65z"/>
						<circle class="st2" cx="500.66" cy="431.66" r="10.7"/>
						<g>
							<rect x="499.41" y="383.56" class="st2" width="2.5" height="78.57"/>
						</g>
					</g>
					<g>
						<circle class="st2" cx="377.19" cy="408.12" r="10.7"/>
						<circle class="st2" cx="417.88" cy="384.63" r="10.7"/>
						<g>
							
								<rect x="386.23" y="378.98" transform="matrix(0.866 -0.5 0.5 0.866 -133.1033 263.6982)" class="st2" width="78.57" height="2.5"/>
						</g>
					</g>
					<g>
						<circle class="st2" cx="376.54" cy="265.94" r="10.7"/>
						<circle class="st2" cx="417.23" cy="289.43" r="10.7"/>
						<g>
							
								<rect x="423.61" y="254.55" transform="matrix(0.5 -0.866 0.866 0.5 -42.0409 514.8575)" class="st2" width="2.5" height="78.57"/>
						</g>
					</g>
					<g>
						<circle class="st2" cx="499.34" cy="194.28" r="10.7"/>
						<circle class="st2" cx="499.34" cy="241.26" r="10.7"/>
						<g>
							<rect x="498.1" y="210.79" class="st2" width="2.5" height="78.57"/>
						</g>
					</g>
				</g>
			</g>
			<g>
				<g>
					<g>
						<circle class="st1" cx="570.52" cy="213" r="10.7"/>
						<circle class="st1" cx="547.03" cy="253.69" r="10.7"/>
						<g>
							
								<rect x="503.34" y="260.07" transform="matrix(0.5 -0.866 0.866 0.5 45.0017 600.5869)" class="st1" width="78.57" height="2.5"/>
						</g>
					</g>
					<g>
						<circle class="st1" cx="642.18" cy="335.8" r="10.7"/>
						<circle class="st1" cx="595.2" cy="335.8" r="10.7"/>
						<g>
							<rect x="547.1" y="334.56" class="st1" width="78.57" height="2.5"/>
						</g>
					</g>
					<g>
						<circle class="st1" cx="571.66" cy="459.27" r="10.7"/>
						<circle class="st1" cx="548.17" cy="418.58" r="10.7"/>
						<g>
							
								<rect x="542.51" y="371.66" transform="matrix(0.866 -0.5 0.5 0.866 -132.6226 326.9371)" class="st1" width="2.5" height="78.57"/>
						</g>
					</g>
					<g>
						<circle class="st1" cx="429.48" cy="459.93" r="10.7"/>
						<circle class="st1" cx="452.97" cy="419.24" r="10.7"/>
						<g>
							
								<rect x="418.09" y="410.35" transform="matrix(0.5 -0.866 0.866 0.5 -127.7702 601.9001)" class="st1" width="78.57" height="2.5"/>
						</g>
					</g>
					<g>
						<circle class="st1" cx="357.82" cy="337.12" r="10.7"/>
						<circle class="st1" cx="404.8" cy="337.12" r="10.7"/>
						<g>
							<rect x="374.33" y="335.87" class="st1" width="78.57" height="2.5"/>
						</g>
					</g>
					<g>
						<circle class="st1" cx="428.34" cy="213.65" r="10.7"/>
						<circle class="st1" cx="451.83" cy="254.34" r="10.7"/>
						<g>
							
								<rect x="454.99" y="222.69" transform="matrix(0.866 -0.5 0.5 0.866 -69.8644 263.2175)" class="st1" width="2.5" height="78.57"/>
						</g>
					</g>
					<circle class="st1" cx="500" cy="336.46" r="22.45"/>
				</g>
			</g>
		</g>
	</g>
</g>
<g id="Layer_3">
</g>
<g id="Layer_4">
	<g id="Layer_3_1_">
	</g>
	<g id="Regal_Vector_Pack_04_2_">
	</g>
	<g id="Regal_Vector_Pack_02_2_">
	</g>
	<g id="Layer_4_1_">
	</g>
	<g id="Layer_3_3_">
	</g>
</g>
</svg>
