<svg width="71" height="40" viewBox="0 0 71 40" fill="none" xmlns="http://www.w3.org/2000/svg">
<path d="M4.14081 36.3766L2.59073 38.444H2.41398L0.89767 36.3696V39.8312H0V35.0708H1.03371L2.52321 37.1174L4.01271 35.0708H5.03947V39.8312H4.1418V36.3766H4.14081Z" fill="white"/>
<path d="M10.1107 39.8244H6.54785C6.54785 38.2396 6.54785 36.6488 6.54785 35.064H10.1107V35.9348H7.43857V37.0291H10.0154V37.8652H7.43857V38.9396H10.1107V39.8244Z" fill="white"/>
<path d="M12.9934 35.8802H11.484V35.064C12.8573 35.064 14.0201 35.064 15.4004 35.064V35.8802H13.891V39.8244H12.9934V35.8802Z" fill="white"/>
<path d="M20.0029 38.9267H17.5145L17.1064 39.8244H16.1342L18.2692 35.064H19.2483L21.3832 39.8244H20.4041L20.0029 38.9267ZM18.7587 36.0639L17.8749 38.0906H19.6425L18.7587 36.0639Z" fill="white"/>
<path d="M26.2659 36.4442C26.2659 36.8116 26.0891 37.1652 25.6472 37.3618C26.2053 37.5316 26.4088 38.1234 26.4088 38.4223C26.4088 39.4828 25.6135 39.8234 24.6274 39.8234C23.8727 39.8234 23.125 39.8234 22.3693 39.8234V35.064C23.1171 35.064 23.8717 35.064 24.6274 35.064C25.5648 35.064 26.2659 35.486 26.2659 36.4442ZM23.2531 36.9755H24.6264C25.1904 36.9755 25.3741 36.7372 25.3741 36.4651C25.3741 36.2476 25.1974 35.8802 24.6264 35.8802H23.2531V36.9755ZM23.2531 38.9883H24.6264C24.9938 38.9883 25.5171 38.8662 25.5171 38.4173C25.5171 37.9893 24.9938 37.7649 24.6264 37.7649H23.2531V38.9883Z" fill="white"/>
<path d="M32.4731 37.4706C32.4592 38.7009 31.7045 39.9323 30.0323 39.9323C28.3601 39.9323 27.5845 38.7288 27.5845 37.4776C27.5845 36.2264 28.3869 34.9683 30.0323 34.9683C31.6707 34.9683 32.487 36.2264 32.4731 37.4706ZM28.4683 37.4915C28.4892 38.273 28.9102 39.1101 30.0323 39.1101C31.1544 39.1101 31.5764 38.267 31.5893 37.4845C31.6032 36.6822 31.1544 35.7845 30.0323 35.7845C28.9102 35.7845 28.4474 36.6891 28.4683 37.4915Z" fill="white"/>
<path d="M34.7093 35.064V38.9943H37.157V39.8234H33.8116V35.064H34.7093Z" fill="white"/>
<path d="M38.4767 39.8244V35.064H39.3674V39.8244H38.4767Z" fill="white"/>
<path d="M45.0862 39.2252C44.5966 39.7078 43.9641 39.9323 43.2769 39.9323C41.5084 39.9323 40.7607 38.7148 40.7537 37.4776C40.7468 36.2333 41.5561 34.9683 43.2769 34.9683C43.9234 34.9683 44.535 35.2125 45.0246 35.6961L44.4258 36.2741C44.113 35.9682 43.691 35.8252 43.2769 35.8252C42.128 35.8252 41.6315 36.6822 41.6385 37.4776C41.6454 38.266 42.1012 39.0892 43.2769 39.0892C43.692 39.0892 44.1607 38.9194 44.4735 38.6066L45.0862 39.2252Z" fill="white"/>
<path d="M50.2904 34.9697H48.1068V39.9188H48.6837V38.2814H50.2904C50.7978 38.2814 51.2258 38.1016 51.5267 37.761C51.7928 37.4602 51.9388 37.057 51.9388 36.6251C51.9388 35.8029 51.3728 34.9697 50.2904 34.9697ZM51.3668 36.629C51.3668 37.1633 51.0302 37.7382 50.2894 37.7382H48.6828V35.5198H50.2894C51.0302 35.5198 51.3668 36.0948 51.3668 36.629Z" fill="white"/>
<path d="M55.5007 34.895C53.7769 34.895 53.0053 36.172 53.0053 37.4371C53.0053 38.6714 53.7858 40 55.5007 40C57.2057 40 57.9892 38.6793 57.9961 37.452C58.0001 36.7092 57.7469 36.0439 57.2841 35.5782C56.8393 35.1314 56.2236 34.895 55.5007 34.895ZM57.4321 37.444C57.4321 38.4102 56.8274 39.4499 55.5007 39.4499C54.187 39.4499 53.5822 38.4102 53.5763 37.444C53.5723 36.8502 53.7679 36.3249 54.1254 35.9655C54.463 35.6249 54.9397 35.4451 55.5007 35.4451C56.8353 35.4451 57.4321 36.4491 57.4321 37.444Z" fill="white"/>
<path d="M59.9037 34.9697H59.3327V39.9188H59.9037V34.9697Z" fill="white"/>
<path d="M64.7604 38.6965L61.7298 34.9697H61.417V39.9188H61.9949V36.1981L65.0325 39.9188H65.3314V34.9697H64.7604V38.6965Z" fill="white"/>
<path d="M66.4852 34.9766V35.5128H68.1982V39.9187H68.7751V35.5128H70.487V34.9766H66.4852Z" fill="white"/>
<path d="M47.4385 9.12795C48.0254 9.12795 48.5011 8.65225 48.5011 8.06544C48.5011 7.47863 48.0254 7.00293 47.4385 7.00293C46.8517 7.00293 46.376 7.47863 46.376 8.06544C46.376 8.65225 46.8517 9.12795 47.4385 9.12795Z" fill="#00A7E1"/>
<path d="M43.398 11.4605C43.9848 11.4605 44.4605 10.9848 44.4605 10.398C44.4605 9.81115 43.9848 9.33545 43.398 9.33545C42.8112 9.33545 42.3355 9.81115 42.3355 10.398C42.3355 10.9848 42.8112 11.4605 43.398 11.4605Z" fill="#00A7E1"/>
<path d="M45.9546 8.77674L39.1981 12.6777L39.3222 12.8927L46.0787 8.99172L45.9546 8.77674Z" fill="#00A7E1"/>
<path d="M47.5031 23.2471C48.0899 23.2471 48.5656 22.7714 48.5656 22.1846C48.5656 21.5978 48.0899 21.1221 47.5031 21.1221C46.9163 21.1221 46.4406 21.5978 46.4406 22.1846C46.4406 22.7714 46.9163 23.2471 47.5031 23.2471Z" fill="#00A7E1"/>
<path d="M43.4626 20.9136C44.0494 20.9136 44.5251 20.4379 44.5251 19.8511C44.5251 19.2643 44.0494 18.7886 43.4626 18.7886C42.8758 18.7886 42.4001 19.2643 42.4001 19.8511C42.4001 20.4379 42.8758 20.9136 43.4626 20.9136Z" fill="#00A7E1"/>
<path d="M39.3876 17.3573L39.2635 17.5723L46.02 21.4733L46.1441 21.2583L39.3876 17.3573Z" fill="#00A7E1"/>
<path d="M34.2465 29.3003C34.2465 28.7134 34.7222 28.2378 35.309 28.2378C35.8959 28.2378 36.3715 28.7134 36.3715 29.3003C36.3715 29.8872 35.8959 30.3628 35.309 30.3628C34.7222 30.3618 34.2465 29.8872 34.2465 29.3003Z" fill="#00A7E1"/>
<path d="M35.309 25.6968C35.8958 25.6968 36.3715 25.2211 36.3715 24.6343C36.3715 24.0475 35.8958 23.5718 35.309 23.5718C34.7222 23.5718 34.2465 24.0475 34.2465 24.6343C34.2465 25.2211 34.7222 25.6968 35.309 25.6968Z" fill="#00A7E1"/>
<path d="M35.4332 19.8579H35.1849V27.6599H35.4332V19.8579Z" fill="#00A7E1"/>
<path d="M23.0485 23.3594C23.6353 23.3594 24.111 22.8837 24.111 22.2969C24.111 21.7101 23.6353 21.2344 23.0485 21.2344C22.4617 21.2344 21.986 21.7101 21.986 22.2969C21.986 22.8837 22.4617 23.3594 23.0485 23.3594Z" fill="#00A7E1"/>
<path d="M27.089 21.0269C27.6758 21.0269 28.1515 20.5512 28.1515 19.9644C28.1515 19.3776 27.6758 18.9019 27.089 18.9019C26.5022 18.9019 26.0265 19.3776 26.0265 19.9644C26.0265 20.5512 26.5022 21.0269 27.089 21.0269Z" fill="#00A7E1"/>
<path d="M31.1626 17.4681L24.4061 21.3691L24.5302 21.5841L31.2867 17.6831L31.1626 17.4681Z" fill="#00A7E1"/>
<path d="M22.984 9.24074C23.5708 9.24074 24.0465 8.76504 24.0465 8.17823C24.0465 7.59143 23.5708 7.11572 22.984 7.11572C22.3972 7.11572 21.9214 7.59143 21.9214 8.17823C21.9214 8.76504 22.3972 9.24074 22.984 9.24074Z" fill="#00A7E1"/>
<path d="M27.0245 11.5733C27.6113 11.5733 28.087 11.0976 28.087 10.5108C28.087 9.92394 27.6113 9.44824 27.0245 9.44824C26.4377 9.44824 25.962 9.92394 25.962 10.5108C25.962 11.0976 26.4377 11.5733 27.0245 11.5733Z" fill="#00A7E1"/>
<path d="M24.4648 8.89146L24.3407 9.10645L31.0972 13.0074L31.2214 12.7925L24.4648 8.89146Z" fill="#00A7E1"/>
<path d="M35.178 2.12502C35.7648 2.12502 36.2405 1.64932 36.2405 1.06251C36.2405 0.475701 35.7648 0 35.178 0C34.5912 0 34.1155 0.475701 34.1155 1.06251C34.1155 1.64932 34.5912 2.12502 35.178 2.12502Z" fill="#00A7E1"/>
<path d="M35.178 6.79006C35.7648 6.79006 36.2405 6.31435 36.2405 5.72755C36.2405 5.14074 35.7648 4.66504 35.178 4.66504C34.5912 4.66504 34.1155 5.14074 34.1155 5.72755C34.1155 6.31435 34.5912 6.79006 35.178 6.79006Z" fill="#00A7E1"/>
<path d="M35.3031 2.70166H35.0549V10.5037H35.3031V2.70166Z" fill="#00A7E1"/>
<path d="M42.2462 3.98391C42.833 3.98391 43.3087 3.5082 43.3087 2.9214C43.3087 2.33459 42.833 1.85889 42.2462 1.85889C41.6594 1.85889 41.1837 2.33459 41.1837 2.9214C41.1837 3.5082 41.6594 3.98391 42.2462 3.98391Z" fill="white"/>
<path d="M39.9136 8.02443C40.5004 8.02443 40.9761 7.54873 40.9761 6.96192C40.9761 6.37512 40.5004 5.89941 39.9136 5.89941C39.3268 5.89941 38.8511 6.37512 38.8511 6.96192C38.8511 7.54873 39.3268 8.02443 39.9136 8.02443Z" fill="white"/>
<path d="M41.3183 4.28059L37.4173 11.0371L37.6323 11.1612L41.5333 4.40471L41.3183 4.28059Z" fill="white"/>
<path d="M49.362 16.1787C49.9488 16.1787 50.4245 15.703 50.4245 15.1162C50.4245 14.5294 49.9488 14.0537 49.362 14.0537C48.7752 14.0537 48.2995 14.5294 48.2995 15.1162C48.2995 15.703 48.7752 16.1787 49.362 16.1787Z" fill="white"/>
<path d="M44.6969 16.1787C45.2837 16.1787 45.7594 15.703 45.7594 15.1162C45.7594 14.5294 45.2837 14.0537 44.6969 14.0537C44.1101 14.0537 43.6344 14.5294 43.6344 15.1162C43.6344 15.703 44.1101 16.1787 44.6969 16.1787Z" fill="white"/>
<path d="M47.7225 14.9922H39.9205V15.2404H47.7225V14.9922Z" fill="white"/>
<path d="M42.3593 28.4385C42.9461 28.4385 43.4218 27.9628 43.4218 27.376C43.4218 26.7892 42.9461 26.3135 42.3593 26.3135C41.7725 26.3135 41.2968 26.7892 41.2968 27.376C41.2968 27.9628 41.7725 28.4385 42.3593 28.4385Z" fill="white"/>
<path d="M40.0268 24.398C40.6136 24.398 41.0893 23.9223 41.0893 23.3355C41.0893 22.7486 40.6136 22.2729 40.0268 22.2729C39.44 22.2729 38.9643 22.7486 38.9643 23.3355C38.9643 23.9223 39.44 24.398 40.0268 24.398Z" fill="white"/>
<path d="M37.7445 19.1361L37.5295 19.2603L41.4305 26.0168L41.6455 25.8927L37.7445 19.1361Z" fill="white"/>
<path d="M28.2409 28.5039C28.8277 28.5039 29.3034 28.0282 29.3034 27.4414C29.3034 26.8546 28.8277 26.3789 28.2409 26.3789C27.6541 26.3789 27.1784 26.8546 27.1784 27.4414C27.1784 28.0282 27.6541 28.5039 28.2409 28.5039Z" fill="white"/>
<path d="M30.5734 24.4634C31.1602 24.4634 31.6359 23.9877 31.6359 23.4009C31.6359 22.8141 31.1602 22.3384 30.5734 22.3384C29.9866 22.3384 29.5109 22.8141 29.5109 23.4009C29.5109 23.9877 29.9866 24.4634 30.5734 24.4634Z" fill="white"/>
<path d="M32.8534 19.2039L28.9524 25.9604L29.1674 26.0846L33.0684 19.328L32.8534 19.2039Z" fill="white"/>
<path d="M21.1251 16.3091C21.7119 16.3091 22.1876 15.8334 22.1876 15.2466C22.1876 14.6598 21.7119 14.1841 21.1251 14.1841C20.5383 14.1841 20.0626 14.6598 20.0626 15.2466C20.0626 15.8334 20.5383 16.3091 21.1251 16.3091Z" fill="white"/>
<path d="M25.7902 16.3091C26.377 16.3091 26.8527 15.8334 26.8527 15.2466C26.8527 14.6598 26.377 14.1841 25.7902 14.1841C25.2034 14.1841 24.7277 14.6598 24.7277 15.2466C24.7277 15.8334 25.2034 16.3091 25.7902 16.3091Z" fill="white"/>
<path d="M30.5665 15.1226H22.7645V15.3708H30.5665V15.1226Z" fill="white"/>
<path d="M28.1277 4.04933C28.7145 4.04933 29.1902 3.57363 29.1902 2.98683C29.1902 2.40002 28.7145 1.92432 28.1277 1.92432C27.5409 1.92432 27.0652 2.40002 27.0652 2.98683C27.0652 3.57363 27.5409 4.04933 28.1277 4.04933Z" fill="white"/>
<path d="M30.4603 8.08986C31.0471 8.08986 31.5228 7.61416 31.5228 7.02735C31.5228 6.44054 31.0471 5.96484 30.4603 5.96484C29.8735 5.96484 29.3978 6.44054 29.3978 7.02735C29.3978 7.61416 29.8735 8.08986 30.4603 8.08986Z" fill="white"/>
<path d="M29.0538 4.34365L28.8388 4.46777L32.7398 11.2243L32.9548 11.1002L29.0538 4.34365Z" fill="white"/>
<path d="M35.2435 17.4102C36.4747 17.4102 37.4728 16.4121 37.4728 15.1809C37.4728 13.9497 36.4747 12.9517 35.2435 12.9517C34.0123 12.9517 33.0142 13.9497 33.0142 15.1809C33.0142 16.4121 34.0123 17.4102 35.2435 17.4102Z" fill="white"/>
</svg>
